{"glyphs":{"0":{"ha":1414,"x_min":0,"x_max":0,"o":"m 829 376 l 603 376 l 603 594 l 829 594 m 1096 743 l 571 743 b 317 483 376 743 317 683 l 317 231 l 842 231 b 1096 488 1033 231 1096 286 m 1333 972 l 1333 483 b 847 0 1333 181 1154 0 l 81 0 l 81 488 b 567 972 81 785 260 972 "},"1":{"ha":593,"x_min":0,"x_max":0,"o":"m 281 0 l 281 522 b 85 743 281 669 215 743 l 24 743 l 24 972 l 90 972 b 518 526 379 972 518 833 l 518 0 "},"2":{"ha":1336,"x_min":0,"x_max":0,"o":"m 1265 0 l 64 0 l 64 594 l 1043 594 b 878 743 1028 694 972 743 l 64 743 l 64 972 l 828 972 b 1271 563 1124 972 1271 835 l 1271 376 l 289 376 l 289 231 l 1265 231 "},"3":{"ha":1367,"x_min":0,"x_max":0,"o":"m 1286 972 l 1286 483 b 800 0 1286 181 1111 0 l 88 0 l 88 231 l 796 231 b 1038 376 940 231 1008 274 l 488 376 l 488 594 l 1050 594 l 1050 743 l 474 743 b 308 594 378 743 322 694 l 82 594 b 525 972 93 847 240 972 "},"4":{"ha":1358,"x_min":0,"x_max":0,"o":"m 311 972 l 311 594 l 1043 594 l 1043 972 l 1267 972 l 1267 0 l 1043 0 l 1043 376 l 74 376 l 74 972 "},"5":{"ha":1314,"x_min":0,"x_max":0,"o":"m 1228 743 l 314 743 l 314 594 l 1233 594 l 1233 410 b 789 0 1233 138 1085 0 l 90 0 l 90 231 l 839 231 b 1004 376 936 231 989 282 l 90 376 l 90 972 l 1228 972 "},"6":{"ha":1306,"x_min":0,"x_max":0,"o":"m 832 231 b 996 376 926 231 981 282 l 307 376 l 307 231 m 1219 743 l 475 743 b 308 594 376 743 321 694 l 1225 594 l 1225 410 b 781 0 1225 138 1076 0 l 83 0 l 83 563 b 526 972 83 835 231 972 l 1219 972 "},"7":{"ha":1369,"x_min":0,"x_max":0,"o":"m 231 0 l 815 674 b 894 749 826 686 853 713 b 763 743 849 744 804 743 l 458 743 b 292 594 361 743 306 694 l 64 594 b 508 972 75 847 224 972 l 1354 972 l 528 0 "},"8":{"ha":1419,"x_min":0,"x_max":0,"o":"m 404 744 b 325 674 351 744 325 721 b 404 589 325 617 351 589 l 1018 589 b 1096 674 1069 589 1096 617 b 1018 744 1096 721 1069 744 m 404 382 b 325 300 351 382 325 354 b 404 225 325 250 351 225 l 1018 225 b 1096 300 1069 225 1096 250 b 1018 382 1096 354 1069 382 m 340 0 b 74 247 164 0 74 82 b 243 496 74 393 136 474 b 74 726 133 515 74 592 b 340 972 74 890 164 972 l 1081 972 b 1346 726 1258 972 1346 890 b 1179 496 1346 592 1286 515 b 1346 247 1285 474 1346 393 b 1081 0 1346 82 1258 0 "},"9":{"ha":1347,"x_min":0,"x_max":0,"o":"m 1039 594 l 1039 743 l 474 743 b 308 594 379 743 324 694 m 86 231 l 871 231 b 1036 376 969 231 1022 282 l 82 376 l 82 563 b 525 972 82 835 229 972 l 1263 972 l 1263 410 b 819 0 1263 138 1115 0 l 86 0 "},"\u0000":{"ha":0,"x_min":0,"x_max":0,"o":""}," ":{"ha":571,"x_min":0,"x_max":0,"o":""},"\u0017":{"ha":571,"x_min":0,"x_max":0,"o":""},"!":{"ha":393,"x_min":0,"x_max":0,"o":"m 90 1 l 90 231 l 326 231 l 326 1 m 326 972 l 326 322 l 90 322 l 90 972 "},"\"":{"ha":575,"x_min":0,"x_max":0,"o":"m 497 682 l 333 682 l 333 972 l 497 972 m 247 682 l 83 682 l 83 972 l 247 972 "},"#":{"ha":781,"x_min":0,"x_max":0,"o":"m 465 411 l 465 567 l 315 567 l 315 411 m 728 257 l 625 257 l 625 153 l 465 153 l 465 257 l 315 257 l 315 153 l 156 153 l 156 257 l 53 257 l 53 411 l 156 411 l 156 567 l 53 567 l 53 721 l 156 721 l 156 824 l 315 824 l 315 721 l 465 721 l 465 824 l 625 824 l 625 721 l 728 721 l 728 567 l 625 567 l 625 411 l 728 411 "},"$":{"ha":1374,"x_min":0,"x_max":0,"o":"m 894 376 l 894 231 b 1060 376 990 231 1044 282 m 478 594 l 478 743 b 313 594 381 743 325 694 m 615 231 l 761 231 l 761 376 l 615 376 m 615 594 l 761 594 l 761 743 l 615 743 m 615 -90 l 478 -90 l 478 0 l 86 0 l 86 231 l 478 231 l 478 376 l 86 376 l 86 563 b 478 969 86 818 218 953 l 478 1061 l 615 1061 l 615 972 l 761 972 l 761 1061 l 894 1061 l 894 972 l 1283 972 l 1283 743 l 894 743 l 894 594 l 1288 594 l 1288 410 b 894 1 1288 153 1157 15 l 894 -90 l 761 -90 l 761 0 l 615 0 "},"%":{"ha":1681,"x_min":0,"x_max":0,"o":"m 1322 201 l 1188 201 l 1188 335 l 1322 335 m 768 972 l 768 701 b 499 435 768 535 669 435 l 81 435 l 81 704 b 349 972 81 868 179 972 m 496 636 l 361 636 l 361 769 l 496 769 m 1351 907 l 444 -15 l 342 89 l 1250 1011 m 1594 538 l 1594 267 b 1325 0 1594 100 1496 0 l 907 0 l 907 269 b 1175 538 907 433 1006 538 m 1453 399 l 1178 399 b 1049 267 1079 399 1049 368 l 1049 139 l 1322 139 b 1453 269 1419 139 1453 167 m 626 833 l 351 833 b 222 701 253 833 222 803 l 222 574 l 496 574 b 626 704 593 574 626 601 "},"&":{"ha":1444,"x_min":0,"x_max":0,"o":"m 1133 589 l 1371 589 l 1371 0 l 343 0 b 78 247 167 0 78 82 b 258 496 78 393 146 474 b 78 726 139 515 78 593 b 343 972 78 890 167 972 l 968 972 l 968 747 l 407 747 b 328 674 354 747 328 722 b 407 589 328 617 354 589 l 967 589 l 967 382 l 407 382 b 328 300 354 382 328 354 b 407 225 328 250 354 225 l 1133 225 "},"'":{"ha":350,"x_min":0,"x_max":0,"o":"m 254 682 l 90 682 l 90 972 l 254 972 "},"(":{"ha":607,"x_min":0,"x_max":0,"o":"m 483 -385 b 106 243 260 -304 106 -140 l 106 656 b 483 1281 106 1038 260 1204 l 581 1117 b 335 688 403 1046 335 886 l 335 208 b 581 -218 335 13 403 -150 "},")":{"ha":607,"x_min":0,"x_max":0,"o":"m 25 -218 b 272 208 204 -150 272 13 l 272 688 b 25 1117 272 886 204 1046 l 124 1281 b 500 656 347 1204 500 1038 l 500 243 b 124 -385 500 -140 347 -304 "},"*":{"ha":831,"x_min":0,"x_max":0,"o":"m 781 363 l 700 228 l 496 351 l 496 154 l 335 154 l 335 351 l 128 228 l 49 363 l 263 489 l 49 618 l 128 751 l 335 629 l 335 825 l 496 825 l 496 629 l 700 751 l 781 618 l 567 489 "},"+":{"ha":619,"x_min":0,"x_max":0,"o":"m 596 413 l 390 413 l 390 207 l 231 207 l 231 413 l 24 413 l 24 567 l 231 567 l 231 774 l 390 774 l 390 567 l 596 567 "},",":{"ha":313,"x_min":0,"x_max":0,"o":"m 181 -131 l 65 -131 l 65 171 l 263 171 "},"-":{"ha":753,"x_min":0,"x_max":0,"o":"m 663 413 l 90 413 l 90 567 l 663 567 "},".":{"ha":385,"x_min":0,"x_max":0,"o":"m 288 0 l 94 0 l 94 231 l 288 231 "},"/":{"ha":1022,"x_min":0,"x_max":0,"o":"m 1017 907 l 108 -15 l 7 89 l 914 1011 "},":":{"ha":392,"x_min":0,"x_max":0,"o":"m 288 101 l 94 101 l 94 332 l 288 332 m 290 561 l 97 561 l 97 793 l 290 793 "},";":{"ha":363,"x_min":0,"x_max":0,"o":"m 283 501 l 90 501 l 90 733 l 283 733 m 206 -131 l 89 -131 l 89 231 l 286 231 "},"<":{"ha":619,"x_min":0,"x_max":0,"o":"m 596 124 l 24 400 l 24 593 l 596 857 l 596 683 l 167 489 l 596 297 "},"=":{"ha":619,"x_min":0,"x_max":0,"o":"m 596 576 l 24 576 l 24 731 l 596 731 m 596 249 l 24 249 l 24 404 l 596 404 "},">":{"ha":619,"x_min":0,"x_max":0,"o":"m 24 297 l 454 489 l 24 683 l 24 857 l 596 593 l 596 400 l 24 124 "},"?":{"ha":1219,"x_min":0,"x_max":0,"o":"m 1168 408 l 707 408 l 707 322 l 469 322 l 469 586 l 938 586 l 938 743 l 432 743 b 264 594 328 743 274 694 l 42 594 b 469 972 61 847 204 972 l 1168 972 m 469 1 l 469 231 l 707 231 l 707 1 "},"@":{"ha":1215,"x_min":0,"x_max":0,"o":"m 663 472 l 564 472 l 564 374 l 663 374 m 1131 972 l 1131 68 l 665 68 l 665 231 l 410 231 l 410 440 b 604 632 410 567 474 632 l 824 632 l 824 231 l 939 231 l 939 764 l 468 764 b 285 576 346 764 285 700 l 285 0 l 85 0 l 85 558 b 461 972 85 833 210 972 "},"A":{"ha":1439,"x_min":0,"x_max":0,"o":"m 1110 743 l 682 743 b 333 590 399 743 353 681 l 1110 590 m 1347 0 l 1110 0 l 1110 376 l 318 376 l 318 0 l 82 0 l 82 488 b 567 972 82 792 258 972 l 1347 972 "},"B":{"ha":1467,"x_min":0,"x_max":0,"o":"m 326 225 l 1054 225 b 1133 300 1107 225 1133 250 b 1054 382 1133 354 1107 382 l 493 382 l 493 589 l 1054 589 b 1133 674 1107 589 1133 617 b 1054 744 1133 721 1107 744 l 326 744 m 90 972 l 1117 972 b 1383 726 1294 972 1383 890 b 1215 496 1383 592 1325 515 b 1383 247 1322 474 1383 393 b 1117 0 1383 82 1294 0 l 90 0 "},"C":{"ha":1356,"x_min":0,"x_max":0,"o":"m 1294 0 l 81 0 l 81 488 b 567 972 81 792 257 972 l 1294 972 l 1294 743 l 571 743 b 317 483 401 743 317 657 l 317 231 l 1294 231 "},"D":{"ha":1399,"x_min":0,"x_max":0,"o":"m 1081 743 l 90 743 l 90 972 l 1317 972 l 1317 483 b 832 0 1317 181 1140 0 l 90 0 l 90 594 l 326 594 l 326 231 l 826 231 b 1081 488 996 231 1081 315 "},"E":{"ha":1365,"x_min":0,"x_max":0,"o":"m 1314 743 l 317 743 l 317 594 l 1289 594 l 1289 376 l 329 376 b 571 231 358 282 426 231 l 1314 231 l 1314 0 l 567 0 b 81 483 265 0 81 186 l 81 972 l 1314 972 "},"F":{"ha":1285,"x_min":0,"x_max":0,"o":"m 1190 376 l 317 376 l 317 0 l 81 0 l 81 488 b 567 972 81 785 260 972 l 1268 972 l 1268 743 l 571 743 b 329 594 426 743 358 690 l 1190 594 "},"G":{"ha":1436,"x_min":0,"x_max":0,"o":"m 1353 972 l 1353 743 l 571 743 b 317 479 374 743 317 685 l 317 231 l 1122 231 l 1122 376 l 946 376 l 946 594 l 1358 594 l 1358 0 l 82 0 l 82 488 b 567 972 82 792 257 972 "},"H":{"ha":1408,"x_min":0,"x_max":0,"o":"m 1317 0 l 1081 0 l 1081 375 l 326 375 l 326 0 l 90 0 l 90 972 l 326 972 l 326 594 l 1081 594 l 1081 972 l 1317 972 "},"I":{"ha":421,"x_min":0,"x_max":0,"o":"m 326 0 l 90 0 l 90 972 l 326 972 "},"J":{"ha":1351,"x_min":0,"x_max":0,"o":"m 847 972 l 1260 972 l 1260 0 l 513 0 b 33 376 247 0 65 158 l 278 376 b 517 231 311 279 390 231 l 1022 231 l 1022 743 l 847 743 "},"K":{"ha":1418,"x_min":0,"x_max":0,"o":"m 326 0 l 90 0 l 90 972 l 326 972 l 326 594 l 696 594 l 1026 972 l 1322 972 l 975 585 b 1338 113 1203 540 1338 378 l 1338 0 l 1100 0 l 1100 118 b 846 376 1100 290 1015 376 l 326 376 "},"L":{"ha":1342,"x_min":0,"x_max":0,"o":"m 326 972 l 326 231 l 833 231 b 1071 376 958 231 1038 279 l 1315 376 b 838 0 1274 128 1100 0 l 90 0 l 90 972 "},"M":{"ha":1636,"x_min":0,"x_max":0,"o":"m 679 624 l 917 624 l 917 0 l 679 0 m 83 972 l 1058 972 b 1544 526 1347 972 1544 789 l 1544 0 l 1308 0 l 1308 486 b 1058 743 1308 658 1225 743 l 318 743 l 318 0 l 83 0 "},"N":{"ha":1500,"x_min":0,"x_max":0,"o":"m 1407 0 l 1157 0 b 381 697 890 364 633 601 b 317 721 363 703 340 713 b 321 653 319 686 321 663 l 321 0 l 90 0 l 90 972 l 294 972 b 1138 383 606 872 894 647 l 1181 338 b 1176 401 1178 367 1176 388 l 1176 972 l 1407 972 "},"O":{"ha":1458,"x_min":0,"x_max":0,"o":"m 1135 743 l 571 743 b 317 483 376 743 317 683 l 317 231 l 881 231 b 1135 488 1071 231 1135 286 m 1371 972 l 1371 483 b 886 0 1371 181 1194 0 l 81 0 l 81 488 b 567 972 81 785 260 972 "},"P":{"ha":1439,"x_min":0,"x_max":0,"o":"m 90 0 l 90 972 l 1382 972 l 1382 786 b 939 376 1382 514 1233 376 l 436 376 l 436 594 l 989 594 b 1153 743 1085 594 1139 647 l 326 743 l 326 0 "},"Q":{"ha":1393,"x_min":0,"x_max":0,"o":"m 1085 743 l 560 743 b 306 483 363 743 306 683 l 306 231 l 681 231 l 681 349 l 918 349 l 918 231 b 1085 488 1036 250 1085 318 m 918 -132 l 681 -132 l 681 0 l 68 0 l 68 488 b 554 972 68 785 250 972 l 1321 972 l 1321 483 b 918 4 1321 215 1157 28 "},"R":{"ha":1463,"x_min":0,"x_max":0,"o":"m 436 594 l 989 594 b 1153 743 1085 594 1139 647 l 326 743 l 326 0 l 90 0 l 90 972 l 1382 972 l 1382 786 b 1024 381 1382 540 1263 406 l 1393 0 l 1107 0 l 732 376 l 436 376 "},"S":{"ha":1356,"x_min":0,"x_max":0,"o":"m 1269 743 l 474 743 b 307 594 375 743 319 694 l 1274 594 l 1274 410 b 832 0 1274 138 1126 0 l 82 0 l 82 231 l 882 231 b 1047 376 978 231 1032 282 l 82 376 l 82 563 b 525 972 82 835 229 972 l 1269 972 "},"T":{"ha":1314,"x_min":0,"x_max":0,"o":"m 1274 743 l 826 743 l 826 0 l 590 0 l 590 743 l 426 743 b 260 594 324 743 268 694 l 36 594 b 464 972 57 847 199 972 l 1274 972 "},"U":{"ha":1396,"x_min":0,"x_max":0,"o":"m 326 972 l 326 499 b 690 231 326 319 447 231 l 1081 231 l 1081 972 l 1317 972 l 1317 0 l 629 0 b 90 514 300 0 90 181 l 90 972 "},"V":{"ha":1406,"x_min":0,"x_max":0,"o":"m 1378 972 l 701 -85 l 28 972 l 307 972 l 647 401 b 700 293 668 367 686 329 b 757 400 715 329 736 365 l 1099 972 "},"W":{"ha":1710,"x_min":0,"x_max":0,"o":"m 993 349 l 756 349 l 756 972 l 993 972 m 1626 0 l 576 0 b 90 446 288 0 90 182 l 90 972 l 326 972 l 326 485 b 576 231 326 314 408 231 l 1392 231 l 1392 972 l 1626 972 "},"X":{"ha":1489,"x_min":0,"x_max":0,"o":"m 1464 0 l 1132 0 l 749 356 l 347 0 l 19 0 l 581 482 l 17 972 l 353 972 l 738 619 l 1131 972 l 1464 972 l 900 492 "},"Y":{"ha":1450,"x_min":0,"x_max":0,"o":"m 1368 972 l 1368 483 b 883 0 1368 181 1193 0 l 90 0 l 90 231 l 878 231 b 1118 375 1022 231 1092 281 l 90 375 l 90 972 l 326 972 l 326 588 l 1132 588 l 1132 972 "},"Z":{"ha":1369,"x_min":0,"x_max":0,"o":"m 1297 972 l 561 210 l 935 210 b 1100 376 1032 210 1086 274 l 1326 376 b 885 0 1314 126 1167 0 l 38 0 l 793 764 l 149 764 l 149 972 "},"[":{"ha":500,"x_min":0,"x_max":0,"o":"m 118 -385 l 118 1279 l 476 1279 l 476 1101 l 326 1101 l 326 -201 l 476 -201 l 476 -385 "},"\\":{"ha":1022,"x_min":0,"x_max":0,"o":"m 107 1011 l 1014 89 l 914 -15 l 6 907 "},"]":{"ha":500,"x_min":0,"x_max":0,"o":"m 22 -385 l 22 -201 l 172 -201 l 172 1101 l 22 1101 l 22 1279 l 381 1279 l 381 -385 "},"^":{"ha":842,"x_min":0,"x_max":0,"o":"m 54 400 l 331 972 l 524 972 l 788 400 l 614 400 l 419 831 l 228 400 "},"_":{"ha":993,"x_min":0,"x_max":0,"o":"m 1000 -231 l 0 -231 l 0 -82 l 1000 -82 "},"`":{"ha":622,"x_min":0,"x_max":0,"o":"m 81 1279 l 536 1113 l 536 1054 l 81 1054 "},"a":{"ha":1439,"x_min":0,"x_max":0,"o":"m 1110 743 l 682 743 b 333 590 399 743 353 681 l 1110 590 m 1347 0 l 1110 0 l 1110 376 l 318 376 l 318 0 l 82 0 l 82 488 b 567 972 82 792 258 972 l 1347 972 "},"b":{"ha":1467,"x_min":0,"x_max":0,"o":"m 326 225 l 1054 225 b 1133 300 1107 225 1133 250 b 1054 382 1133 354 1107 382 l 493 382 l 493 589 l 1054 589 b 1133 674 1107 589 1133 617 b 1054 744 1133 721 1107 744 l 326 744 m 90 972 l 1117 972 b 1383 726 1294 972 1383 890 b 1215 496 1383 592 1325 515 b 1383 247 1322 474 1383 393 b 1117 0 1383 82 1294 0 l 90 0 "},"c":{"ha":1356,"x_min":0,"x_max":0,"o":"m 1294 0 l 81 0 l 81 488 b 567 972 81 792 257 972 l 1294 972 l 1294 743 l 571 743 b 317 483 401 743 317 657 l 317 231 l 1294 231 "},"d":{"ha":1399,"x_min":0,"x_max":0,"o":"m 1081 743 l 90 743 l 90 972 l 1317 972 l 1317 483 b 832 0 1317 181 1140 0 l 90 0 l 90 594 l 326 594 l 326 231 l 826 231 b 1081 488 996 231 1081 315 "},"e":{"ha":1365,"x_min":0,"x_max":0,"o":"m 1314 743 l 317 743 l 317 594 l 1289 594 l 1289 376 l 329 376 b 571 231 358 282 426 231 l 1314 231 l 1314 0 l 567 0 b 81 483 265 0 81 186 l 81 972 l 1314 972 "},"f":{"ha":1285,"x_min":0,"x_max":0,"o":"m 1190 376 l 317 376 l 317 0 l 81 0 l 81 488 b 567 972 81 785 260 972 l 1268 972 l 1268 743 l 571 743 b 329 594 426 743 358 690 l 1190 594 "},"g":{"ha":1436,"x_min":0,"x_max":0,"o":"m 1353 972 l 1353 743 l 571 743 b 317 479 374 743 317 685 l 317 231 l 1122 231 l 1122 376 l 946 376 l 946 594 l 1358 594 l 1358 0 l 82 0 l 82 488 b 567 972 82 792 257 972 "},"h":{"ha":1408,"x_min":0,"x_max":0,"o":"m 1317 0 l 1081 0 l 1081 375 l 326 375 l 326 0 l 90 0 l 90 972 l 326 972 l 326 594 l 1081 594 l 1081 972 l 1317 972 "},"i":{"ha":421,"x_min":0,"x_max":0,"o":"m 326 0 l 90 0 l 90 972 l 326 972 "},"j":{"ha":1351,"x_min":0,"x_max":0,"o":"m 847 972 l 1260 972 l 1260 0 l 513 0 b 33 376 247 0 65 158 l 278 376 b 517 231 311 279 390 231 l 1022 231 l 1022 743 l 847 743 "},"k":{"ha":1418,"x_min":0,"x_max":0,"o":"m 326 0 l 90 0 l 90 972 l 326 972 l 326 594 l 696 594 l 1026 972 l 1322 972 l 975 585 b 1338 113 1203 540 1338 378 l 1338 0 l 1100 0 l 1100 118 b 846 376 1100 290 1015 376 l 326 376 "},"l":{"ha":1342,"x_min":0,"x_max":0,"o":"m 326 972 l 326 231 l 833 231 b 1071 376 958 231 1038 279 l 1315 376 b 838 0 1274 128 1100 0 l 90 0 l 90 972 "},"m":{"ha":1636,"x_min":0,"x_max":0,"o":"m 679 624 l 917 624 l 917 0 l 679 0 m 83 972 l 1058 972 b 1544 526 1347 972 1544 789 l 1544 0 l 1308 0 l 1308 486 b 1058 743 1308 658 1225 743 l 318 743 l 318 0 l 83 0 "},"n":{"ha":1500,"x_min":0,"x_max":0,"o":"m 1407 0 l 1157 0 b 381 697 890 364 633 601 b 317 721 363 703 340 713 b 321 653 319 686 321 663 l 321 0 l 90 0 l 90 972 l 294 972 b 1138 383 606 872 894 647 l 1181 338 b 1176 401 1178 367 1176 388 l 1176 972 l 1407 972 "},"o":{"ha":1458,"x_min":0,"x_max":0,"o":"m 1135 743 l 571 743 b 317 483 376 743 317 683 l 317 231 l 881 231 b 1135 488 1071 231 1135 286 m 1371 972 l 1371 483 b 886 0 1371 181 1194 0 l 81 0 l 81 488 b 567 972 81 785 260 972 "},"p":{"ha":1439,"x_min":0,"x_max":0,"o":"m 90 0 l 90 972 l 1382 972 l 1382 786 b 939 376 1382 514 1233 376 l 436 376 l 436 594 l 989 594 b 1153 743 1085 594 1139 647 l 326 743 l 326 0 "},"q":{"ha":1393,"x_min":0,"x_max":0,"o":"m 1085 743 l 560 743 b 306 483 363 743 306 683 l 306 231 l 681 231 l 681 349 l 918 349 l 918 231 b 1085 488 1036 250 1085 318 m 918 -132 l 681 -132 l 681 0 l 68 0 l 68 488 b 554 972 68 785 250 972 l 1321 972 l 1321 483 b 918 4 1321 215 1157 28 "},"r":{"ha":1463,"x_min":0,"x_max":0,"o":"m 436 594 l 989 594 b 1153 743 1085 594 1139 647 l 326 743 l 326 0 l 90 0 l 90 972 l 1382 972 l 1382 786 b 1024 381 1382 540 1263 406 l 1393 0 l 1107 0 l 732 376 l 436 376 "},"s":{"ha":1356,"x_min":0,"x_max":0,"o":"m 1269 743 l 474 743 b 307 594 375 743 319 694 l 1274 594 l 1274 410 b 832 0 1274 138 1126 0 l 82 0 l 82 231 l 882 231 b 1047 376 978 231 1032 282 l 82 376 l 82 563 b 525 972 82 835 229 972 l 1269 972 "},"t":{"ha":1314,"x_min":0,"x_max":0,"o":"m 1274 743 l 826 743 l 826 0 l 590 0 l 590 743 l 426 743 b 260 594 324 743 268 694 l 36 594 b 464 972 57 847 199 972 l 1274 972 "},"u":{"ha":1396,"x_min":0,"x_max":0,"o":"m 326 972 l 326 499 b 690 231 326 319 447 231 l 1081 231 l 1081 972 l 1317 972 l 1317 0 l 629 0 b 90 514 300 0 90 181 l 90 972 "},"v":{"ha":1406,"x_min":0,"x_max":0,"o":"m 1378 972 l 701 -85 l 28 972 l 307 972 l 647 401 b 700 293 668 367 686 329 b 757 400 715 329 736 365 l 1099 972 "},"w":{"ha":1710,"x_min":0,"x_max":0,"o":"m 993 349 l 756 349 l 756 972 l 993 972 m 1626 0 l 576 0 b 90 446 288 0 90 182 l 90 972 l 326 972 l 326 485 b 576 231 326 314 408 231 l 1392 231 l 1392 972 l 1626 972 "},"x":{"ha":1489,"x_min":0,"x_max":0,"o":"m 1464 0 l 1132 0 l 749 356 l 347 0 l 19 0 l 581 482 l 17 972 l 353 972 l 738 619 l 1131 972 l 1464 972 l 900 492 "},"y":{"ha":1450,"x_min":0,"x_max":0,"o":"m 1368 972 l 1368 483 b 883 0 1368 181 1193 0 l 90 0 l 90 231 l 878 231 b 1118 375 1022 231 1092 281 l 90 375 l 90 972 l 326 972 l 326 588 l 1132 588 l 1132 972 "},"z":{"ha":1369,"x_min":0,"x_max":0,"o":"m 1297 972 l 561 210 l 935 210 b 1100 376 1032 210 1086 274 l 1326 376 b 885 0 1314 126 1167 0 l 38 0 l 793 764 l 149 764 l 149 972 "},"{":{"ha":594,"x_min":0,"x_max":0,"o":"m 419 -385 b 161 -121 299 -385 161 -328 l 161 226 b 106 364 161 326 140 364 l 29 364 l 29 572 l 106 572 b 161 700 147 572 161 615 l 161 1040 b 415 1279 161 1222 293 1279 l 568 1279 l 568 1086 l 468 1086 b 389 876 415 1086 389 1015 l 389 642 b 296 461 389 563 356 501 b 389 293 365 417 389 369 l 389 -36 b 460 -189 389 -139 413 -189 l 568 -189 l 568 -385 "},"|":{"ha":443,"x_min":0,"x_max":0,"o":"m 314 -260 l 128 -260 l 128 1153 l 314 1153 "},"}":{"ha":594,"x_min":0,"x_max":0,"o":"m 26 -385 l 26 -189 l 136 -189 b 207 -36 182 -189 207 -139 l 207 293 b 300 461 207 369 231 417 b 207 642 239 501 207 563 l 207 876 b 126 1086 207 1015 181 1086 l 26 1086 l 26 1279 l 181 1279 b 433 1040 301 1279 433 1222 l 433 700 b 489 572 433 615 447 572 l 567 572 l 567 364 l 489 364 b 433 226 454 364 433 326 l 433 -121 b 176 -385 433 -328 297 -385 "},"~":{"ha":619,"x_min":0,"x_max":0,"o":"m 469 390 b 440 383 458 386 449 383 b 418 386 433 383 428 385 l 207 443 b 194 444 204 444 199 444 b 181 442 192 444 188 444 l 24 394 l 24 553 l 151 590 b 181 596 164 593 174 596 b 204 592 188 596 193 593 l 414 538 b 428 536 418 536 422 536 b 440 539 431 536 433 536 l 596 582 l 596 426 "}," ":{"ha":785,"x_min":0,"x_max":0,"o":""},"¡":{"ha":413,"x_min":0,"x_max":0,"o":"m 324 972 l 324 743 l 88 743 l 88 972 m 88 1 l 88 651 l 324 651 l 324 1 "},"¢":{"ha":1364,"x_min":0,"x_max":0,"o":"m 699 0 l 567 0 b 81 483 257 0 81 181 l 81 972 l 699 972 l 699 1061 l 832 1061 l 832 972 l 1294 972 l 1294 743 l 832 743 l 832 231 l 1294 231 l 1294 0 l 832 0 l 832 -90 l 699 -90 m 317 486 b 571 231 317 315 401 231 l 699 231 l 699 743 l 317 743 l 317 486 "},"£":{"ha":1278,"x_min":0,"x_max":0,"o":"m 64 594 l 156 594 b 633 972 192 833 367 972 l 1199 972 l 1199 743 l 639 743 b 401 594 513 743 433 694 l 944 594 l 944 464 l 385 464 l 385 231 l 1199 231 l 1199 0 l 69 0 l 69 231 l 149 231 l 149 464 l 64 464 "},"¤":{"ha":942,"x_min":0,"x_max":0,"o":"m 808 0 l 628 189 l 311 189 l 128 0 l 35 97 l 219 279 l 219 599 l 35 781 l 128 875 l 311 692 l 628 692 l 808 875 l 906 781 l 718 599 l 718 279 l 906 97 m 581 551 l 358 551 l 358 326 l 581 326 "},"¥":{"ha":1314,"x_min":0,"x_max":0,"o":"m 1100 376 l 778 376 l 778 217 l 1100 217 l 1100 110 l 778 110 l 778 0 l 540 0 l 540 110 l 210 110 l 210 217 l 540 217 l 540 376 l 210 376 l 210 485 l 449 485 l 36 972 l 332 972 l 660 554 l 985 972 l 1282 972 l 868 485 l 1100 485 "},"¦":{"ha":443,"x_min":0,"x_max":0,"o":"m 314 621 l 128 621 l 128 1153 l 314 1153 m 314 -260 l 128 -260 l 128 274 l 314 274 "},"§":{"ha":1356,"x_min":0,"x_max":0,"o":"m 1269 743 l 474 743 b 307 594 375 743 319 694 l 1274 594 l 1274 410 b 1225 231 1274 340 1256 281 l 1274 231 l 1274 46 b 832 -365 1274 -228 1126 -365 l 82 -365 l 82 -135 l 882 -135 b 1047 11 978 -135 1032 -83 l 82 11 l 82 231 b 126 379 82 286 101 336 l 82 379 l 82 563 b 525 972 82 835 229 972 l 1269 972 m 882 231 b 1047 379 978 231 1032 285 l 474 379 b 307 231 375 379 319 329 l 882 231 "},"¨":{"ha":714,"x_min":0,"x_max":0,"o":"m 626 1044 l 433 1044 l 433 1215 l 626 1215 m 274 1044 l 81 1044 l 81 1215 l 274 1215 "},"©":{"ha":1210,"x_min":0,"x_max":0,"o":"m 1125 972 l 1125 483 b 639 0 1125 181 949 0 l 86 0 l 86 488 b 571 972 86 785 265 972 m 571 847 b 211 488 344 847 211 708 l 211 126 l 639 126 b 999 483 868 126 999 260 l 999 847 m 872 276 l 311 276 l 311 501 b 535 726 311 642 392 726 l 872 726 l 872 619 l 538 619 b 419 500 458 619 419 581 l 419 383 l 872 383 "},"ª":{"ha":829,"x_min":0,"x_max":0,"o":"m 611 833 l 390 833 b 213 767 251 833 224 807 l 611 767 m 754 435 l 611 435 l 611 636 l 201 636 l 201 435 l 60 435 l 60 704 b 328 972 60 874 157 972 l 754 972 "},"«":{"ha":1060,"x_min":0,"x_max":0,"o":"m 940 164 l 765 164 l 478 482 l 765 806 l 940 806 l 640 486 m 540 164 l 365 164 l 79 482 l 365 806 l 540 806 l 242 486 "},"¬":{"ha":619,"x_min":0,"x_max":0,"o":"m 596 0 l 436 0 l 436 413 l 24 413 l 24 567 l 596 567 "},"®":{"ha":1210,"x_min":0,"x_max":0,"o":"m 1125 972 l 1125 483 b 639 0 1125 181 949 0 l 86 0 l 86 488 b 571 972 86 785 265 972 m 571 847 b 211 488 344 847 211 708 l 211 126 l 639 126 b 999 483 868 126 999 260 l 999 847 m 478 553 l 733 553 b 810 619 778 553 803 576 l 428 619 l 428 276 l 318 276 l 318 726 l 915 726 l 915 640 b 750 453 915 526 860 464 l 921 276 l 789 276 l 615 450 l 478 450 "},"¯":{"ha":864,"x_min":0,"x_max":0,"o":"m 81 1193 l 778 1193 l 778 1054 l 81 1054 "},"°":{"ha":549,"x_min":0,"x_max":0,"o":"m 379 764 b 272 860 379 819 349 860 b 167 764 196 860 167 819 b 272 661 167 708 196 661 b 379 764 347 661 379 708 m 508 761 b 272 547 508 644 442 547 b 39 761 104 547 39 644 b 272 972 39 878 104 972 b 508 761 442 972 508 878 "},"±":{"ha":619,"x_min":0,"x_max":0,"o":"m 596 413 l 390 413 l 390 207 l 231 207 l 231 413 l 24 413 l 24 567 l 231 567 l 231 774 l 390 774 l 390 567 l 596 567 m 596 -51 l 24 -51 l 24 103 l 596 103 "},"²":{"ha":772,"x_min":0,"x_max":0,"o":"m 710 435 l 50 435 l 50 769 l 575 769 b 494 833 564 811 538 833 l 50 833 l 50 972 l 468 972 b 713 744 632 972 713 894 l 713 636 l 186 636 l 186 574 l 710 574 "},"³":{"ha":790,"x_min":0,"x_max":0,"o":"m 722 972 l 722 701 b 453 435 722 535 625 435 l 63 435 l 63 574 l 450 574 b 569 636 519 574 553 592 l 278 636 l 278 769 l 581 769 l 581 833 l 278 833 b 194 754 231 833 203 808 l 60 754 b 304 972 67 899 149 972 "},"´":{"ha":622,"x_min":0,"x_max":0,"o":"m 536 1054 l 81 1054 l 81 1113 l 536 1279 "},"¶":{"ha":865,"x_min":0,"x_max":0,"o":"m 617 -179 l 617 815 l 353 815 l 353 -179 l 183 -179 l 183 668 b 36 824 81 690 36 739 b 231 972 36 908 88 972 l 783 972 l 783 -179 "},"·":{"ha":347,"x_min":0,"x_max":0,"o":"m 272 404 l 79 404 l 79 635 l 272 635 "},"¸":{"ha":696,"x_min":0,"x_max":0,"o":"m 81 -87 l 608 -87 l 608 -146 l 344 -314 l 81 -146 "},"¹":{"ha":364,"x_min":0,"x_max":0,"o":"m 165 435 l 165 722 b 67 833 165 797 131 833 l 25 833 l 25 972 l 69 972 b 307 724 229 972 307 894 l 307 435 "},"º":{"ha":839,"x_min":0,"x_max":0,"o":"m 625 833 l 331 833 b 201 701 232 833 201 804 l 201 574 l 497 574 b 625 704 593 574 625 603 m 767 972 l 767 701 b 500 435 767 535 669 435 l 60 435 l 60 704 b 328 972 60 869 158 972 "},"»":{"ha":1060,"x_min":0,"x_max":0,"o":"m 778 486 l 476 806 l 654 806 l 940 482 l 654 164 l 476 164 m 378 486 l 76 806 l 254 806 l 540 482 l 254 164 l 76 164 "},"¼":{"ha":1519,"x_min":0,"x_max":0,"o":"m 1090 907 l 183 -15 l 81 89 l 989 1011 m 919 538 l 919 335 l 1299 335 l 1299 538 l 1433 538 l 1433 0 l 1299 0 l 1299 201 l 778 201 l 778 538 m 239 435 l 239 722 b 140 833 239 797 204 833 l 99 833 l 99 972 l 143 972 b 381 724 303 972 381 894 l 381 435 "},"½":{"ha":1543,"x_min":0,"x_max":0,"o":"m 1454 0 l 794 0 l 794 335 l 1319 335 b 1239 399 1308 376 1282 399 l 794 399 l 794 538 l 1213 538 b 1457 310 1376 538 1457 460 l 1457 201 l 931 201 l 931 139 l 1454 139 m 221 435 l 221 722 b 122 833 221 797 186 833 l 81 833 l 81 972 l 125 972 b 363 724 285 972 363 894 l 363 435 m 1093 907 l 186 -15 l 83 89 l 992 1011 "},"¾":{"ha":1771,"x_min":0,"x_max":0,"o":"m 742 972 l 742 701 b 472 435 742 535 644 435 l 82 435 l 82 574 l 469 574 b 589 636 539 574 572 592 l 297 636 l 297 769 l 600 769 l 600 833 l 297 833 b 214 754 250 833 222 808 l 79 754 b 324 972 86 899 168 972 m 1338 907 l 431 -15 l 328 89 l 1236 1011 m 1171 538 l 1171 335 l 1550 335 l 1550 538 l 1685 538 l 1685 0 l 1550 0 l 1550 201 l 1029 201 l 1029 538 "},"¿":{"ha":1219,"x_min":0,"x_max":0,"o":"m 43 565 l 504 565 l 504 651 l 742 651 l 742 388 l 274 388 l 274 231 l 779 231 b 947 379 883 231 938 279 l 1169 379 b 742 1 1150 126 1007 1 l 43 1 m 742 972 l 742 743 l 504 743 l 504 972 "},"À":{"ha":1439,"x_min":0,"x_max":0,"o":"m 1110 743 l 682 743 b 333 590 399 743 353 681 l 1110 590 m 1347 0 l 1110 0 l 1110 376 l 318 376 l 318 0 l 82 0 l 82 488 b 567 972 82 792 258 972 l 1347 972 m 479 1279 l 935 1113 l 935 1054 l 479 1054 "},"Á":{"ha":1439,"x_min":0,"x_max":0,"o":"m 1110 743 l 682 743 b 333 590 399 743 353 681 l 1110 590 m 1347 0 l 1110 0 l 1110 376 l 318 376 l 318 0 l 82 0 l 82 488 b 567 972 82 792 258 972 l 1347 972 m 1061 1054 l 606 1054 l 606 1113 l 1061 1279 "},"Â":{"ha":1439,"x_min":0,"x_max":0,"o":"m 1110 743 l 682 743 b 333 590 399 743 353 681 l 1110 590 m 1347 0 l 1110 0 l 1110 376 l 318 376 l 318 0 l 82 0 l 82 488 b 567 972 82 792 258 972 l 1347 972 m 506 1113 l 769 1279 l 1033 1113 l 1033 1054 l 506 1054 "},"Ã":{"ha":1439,"x_min":0,"x_max":0,"o":"m 1110 743 l 682 743 b 333 590 399 743 353 681 l 1110 590 m 1347 0 l 1110 0 l 1110 376 l 318 376 l 318 0 l 82 0 l 82 488 b 567 972 82 792 258 972 l 1347 972 m 421 1193 l 1118 1193 l 1118 1054 l 421 1054 "},"Ä":{"ha":1439,"x_min":0,"x_max":0,"o":"m 1110 743 l 682 743 b 333 590 399 743 353 681 l 1110 590 m 1347 0 l 1110 0 l 1110 376 l 318 376 l 318 0 l 82 0 l 82 488 b 567 972 82 792 258 972 l 1347 972 m 1043 1044 l 850 1044 l 850 1215 l 1043 1215 m 690 1044 l 497 1044 l 497 1215 l 690 1215 "},"Å":{"ha":1439,"x_min":0,"x_max":0,"o":"m 1110 743 l 682 743 b 333 590 399 743 353 681 l 1110 590 m 1347 0 l 1110 0 l 1110 376 l 318 376 l 318 0 l 82 0 l 82 488 b 567 972 82 792 258 972 l 1347 972 m 849 1207 l 739 1207 b 690 1156 700 1207 690 1196 l 690 1107 l 800 1107 b 849 1157 839 1107 849 1118 m 932 1279 l 932 1154 b 808 1033 932 1078 888 1033 l 607 1033 l 607 1157 b 728 1279 607 1232 651 1279 "},"Æ":{"ha":2433,"x_min":0,"x_max":0,"o":"m 1110 376 l 318 376 l 318 0 l 82 0 l 82 488 b 567 972 82 792 258 972 l 2349 972 l 2349 743 l 1347 743 l 1347 594 l 2318 594 l 2318 376 l 1347 376 l 1347 231 l 2349 231 l 2349 0 l 1110 0 m 1110 743 l 682 743 b 333 594 400 743 353 681 l 1110 594 "},"Ç":{"ha":1356,"x_min":0,"x_max":0,"o":"m 1294 0 l 81 0 l 81 488 b 567 972 81 792 257 972 l 1294 972 l 1294 743 l 571 743 b 317 483 401 743 317 657 l 317 231 l 1294 231 m 464 -87 l 992 -87 l 992 -146 l 728 -314 l 464 -146 "},"È":{"ha":1365,"x_min":0,"x_max":0,"o":"m 1314 743 l 317 743 l 317 594 l 1289 594 l 1289 376 l 329 376 b 571 231 358 282 426 231 l 1314 231 l 1314 0 l 567 0 b 81 483 265 0 81 186 l 81 972 l 1314 972 m 392 1279 l 847 1113 l 847 1054 l 392 1054 "},"É":{"ha":1365,"x_min":0,"x_max":0,"o":"m 1314 743 l 317 743 l 317 594 l 1289 594 l 1289 376 l 329 376 b 571 231 358 282 426 231 l 1314 231 l 1314 0 l 567 0 b 81 483 265 0 81 186 l 81 972 l 1314 972 m 972 1054 l 517 1054 l 517 1113 l 972 1279 "},"Ê":{"ha":1365,"x_min":0,"x_max":0,"o":"m 1314 743 l 317 743 l 317 594 l 1289 594 l 1289 376 l 329 376 b 571 231 358 282 426 231 l 1314 231 l 1314 0 l 567 0 b 81 483 265 0 81 186 l 81 972 l 1314 972 m 418 1113 l 682 1279 l 946 1113 l 946 1054 l 418 1054 "},"Ë":{"ha":1365,"x_min":0,"x_max":0,"o":"m 1314 743 l 317 743 l 317 594 l 1289 594 l 1289 376 l 329 376 b 571 231 358 282 426 231 l 1314 231 l 1314 0 l 567 0 b 81 483 265 0 81 186 l 81 972 l 1314 972 m 954 1044 l 761 1044 l 761 1215 l 954 1215 m 601 1044 l 408 1044 l 408 1215 l 601 1215 "},"Ì":{"ha":454,"x_min":0,"x_max":0,"o":"m 360 0 l 124 0 l 124 972 l 360 972 m -46 1279 l 410 1113 l 410 1054 l -46 1054 "},"Í":{"ha":447,"x_min":0,"x_max":0,"o":"m 326 0 l 90 0 l 90 972 l 326 972 m 503 1054 l 47 1054 l 47 1113 l 503 1279 "},"Î":{"ha":467,"x_min":0,"x_max":0,"o":"m 349 0 l 113 0 l 113 972 l 349 972 m -31 1113 l 233 1279 l 497 1113 l 497 1054 l -31 1054 "},"Ï":{"ha":474,"x_min":0,"x_max":0,"o":"m 351 0 l 115 0 l 115 972 l 351 972 m 510 1044 l 317 1044 l 317 1215 l 510 1215 m 157 1044 l -36 1044 l -36 1215 l 157 1215 "},"Ð":{"ha":1399,"x_min":0,"x_max":0,"o":"m 24 594 l 486 594 l 486 376 l 326 376 l 326 231 l 826 231 b 1081 488 996 231 1081 315 l 1081 743 l 90 743 l 90 972 l 1317 972 l 1317 483 b 832 0 1317 181 1140 0 l 90 0 l 90 376 l 24 376 "},"Ñ":{"ha":1500,"x_min":0,"x_max":0,"o":"m 1407 0 l 1157 0 b 381 697 890 364 633 601 b 317 721 363 703 340 713 b 321 653 319 686 321 663 l 321 0 l 90 0 l 90 972 l 294 972 b 1138 383 606 872 894 647 l 1181 338 b 1176 401 1178 367 1176 388 l 1176 972 l 1407 972 m 401 1193 l 1099 1193 l 1099 1054 l 401 1054 "},"Ò":{"ha":1458,"x_min":0,"x_max":0,"o":"m 1135 743 l 571 743 b 317 483 376 743 317 683 l 317 231 l 881 231 b 1135 488 1071 231 1135 286 m 1371 972 l 1371 483 b 886 0 1371 181 1194 0 l 81 0 l 81 488 b 567 972 81 785 260 972 m 488 1279 l 943 1113 l 943 1054 l 488 1054 "},"Ó":{"ha":1458,"x_min":0,"x_max":0,"o":"m 1135 743 l 571 743 b 317 483 376 743 317 683 l 317 231 l 881 231 b 1135 488 1071 231 1135 286 m 1371 972 l 1371 483 b 886 0 1371 181 1194 0 l 81 0 l 81 488 b 567 972 81 785 260 972 m 1069 1054 l 614 1054 l 614 1113 l 1069 1279 "},"Ô":{"ha":1458,"x_min":0,"x_max":0,"o":"m 1135 743 l 571 743 b 317 483 376 743 317 683 l 317 231 l 881 231 b 1135 488 1071 231 1135 286 m 1371 972 l 1371 483 b 886 0 1371 181 1194 0 l 81 0 l 81 488 b 567 972 81 785 260 972 m 514 1113 l 778 1279 l 1042 1113 l 1042 1054 l 514 1054 "},"Õ":{"ha":1458,"x_min":0,"x_max":0,"o":"m 1135 743 l 571 743 b 317 483 376 743 317 683 l 317 231 l 881 231 b 1135 488 1071 231 1135 286 m 1371 972 l 1371 483 b 886 0 1371 181 1194 0 l 81 0 l 81 488 b 567 972 81 785 260 972 m 431 1193 l 1128 1193 l 1128 1054 l 431 1054 "},"Ö":{"ha":1458,"x_min":0,"x_max":0,"o":"m 1135 743 l 571 743 b 317 483 376 743 317 683 l 317 231 l 881 231 b 1135 488 1071 231 1135 286 m 1371 972 l 1371 483 b 886 0 1371 181 1194 0 l 81 0 l 81 488 b 567 972 81 785 260 972 m 1051 1044 l 858 1044 l 858 1215 l 1051 1215 m 699 1044 l 506 1044 l 506 1215 l 699 1215 "},"×":{"ha":619,"x_min":0,"x_max":0,"o":"m 458 233 l 313 379 l 167 233 l 53 344 l 199 490 l 53 636 l 163 746 l 308 600 l 454 746 l 567 633 l 421 488 l 567 342 "},"Ø":{"ha":1458,"x_min":0,"x_max":0,"o":"m 1371 861 l 1458 900 l 1458 750 l 1371 711 l 1371 483 b 886 0 1371 181 1194 0 l 81 0 l 81 121 l 0 85 l 0 235 l 81 272 l 81 488 b 567 972 81 785 260 972 l 1371 972 m 881 231 b 1135 488 1069 231 1135 286 l 1135 603 l 319 231 m 1113 743 l 571 743 b 317 483 376 743 317 683 l 317 381 "},"Ù":{"ha":1396,"x_min":0,"x_max":0,"o":"m 326 972 l 326 499 b 690 231 326 319 447 231 l 1081 231 l 1081 972 l 1317 972 l 1317 0 l 629 0 b 90 514 300 0 90 181 l 90 972 m 407 1279 l 863 1113 l 863 1054 l 407 1054 "},"Ú":{"ha":1396,"x_min":0,"x_max":0,"o":"m 326 972 l 326 499 b 690 231 326 319 447 231 l 1081 231 l 1081 972 l 1317 972 l 1317 0 l 629 0 b 90 514 300 0 90 181 l 90 972 m 989 1054 l 533 1054 l 533 1113 l 989 1279 "},"Û":{"ha":1396,"x_min":0,"x_max":0,"o":"m 326 972 l 326 499 b 690 231 326 319 447 231 l 1081 231 l 1081 972 l 1317 972 l 1317 0 l 629 0 b 90 514 300 0 90 181 l 90 972 m 433 1113 l 697 1279 l 961 1113 l 961 1054 l 433 1054 "},"Ü":{"ha":1396,"x_min":0,"x_max":0,"o":"m 326 972 l 326 499 b 690 231 326 319 447 231 l 1081 231 l 1081 972 l 1317 972 l 1317 0 l 629 0 b 90 514 300 0 90 181 l 90 972 m 971 1044 l 778 1044 l 778 1215 l 971 1215 m 618 1044 l 425 1044 l 425 1215 l 618 1215 "},"Ý":{"ha":1450,"x_min":0,"x_max":0,"o":"m 1368 972 l 1368 483 b 883 0 1368 181 1193 0 l 90 0 l 90 231 l 878 231 b 1118 375 1022 231 1092 281 l 90 375 l 90 972 l 326 972 l 326 588 l 1132 588 l 1132 972 m 1015 1054 l 560 1054 l 560 1113 l 1015 1279 "},"Þ":{"ha":1406,"x_min":0,"x_max":0,"o":"m 90 0 l 90 972 l 326 972 l 326 767 l 1343 767 l 1343 581 b 900 169 1343 307 1194 169 l 436 169 l 436 389 l 950 389 b 1114 538 1047 389 1100 442 l 326 538 l 326 0 "},"ß":{"ha":2713,"x_min":0,"x_max":0,"o":"m 1269 743 l 474 743 b 307 594 375 743 319 694 l 1274 594 l 1274 410 b 832 0 1274 138 1126 0 l 82 0 l 82 231 l 882 231 b 1047 376 978 231 1032 282 l 82 376 l 82 563 b 525 972 82 835 229 972 l 1269 972 m 2625 743 l 1829 743 b 1663 594 1731 743 1675 694 l 2629 594 l 2629 410 b 2188 0 2629 138 2482 0 l 1438 0 l 1438 231 l 2238 231 b 2403 376 2333 231 2388 282 l 1438 376 l 1438 563 b 1881 972 1438 835 1585 972 l 2625 972 "},"à":{"ha":1439,"x_min":0,"x_max":0,"o":"m 1110 743 l 682 743 b 333 590 399 743 353 681 l 1110 590 m 1347 0 l 1110 0 l 1110 376 l 318 376 l 318 0 l 82 0 l 82 488 b 567 972 82 792 258 972 l 1347 972 m 479 1279 l 935 1113 l 935 1054 l 479 1054 "},"á":{"ha":1439,"x_min":0,"x_max":0,"o":"m 1110 743 l 682 743 b 333 590 399 743 353 681 l 1110 590 m 1347 0 l 1110 0 l 1110 376 l 318 376 l 318 0 l 82 0 l 82 488 b 567 972 82 792 258 972 l 1347 972 m 1061 1054 l 606 1054 l 606 1113 l 1061 1279 "},"â":{"ha":1439,"x_min":0,"x_max":0,"o":"m 1110 743 l 682 743 b 333 590 399 743 353 681 l 1110 590 m 1347 0 l 1110 0 l 1110 376 l 318 376 l 318 0 l 82 0 l 82 488 b 567 972 82 792 258 972 l 1347 972 m 506 1113 l 769 1279 l 1033 1113 l 1033 1054 l 506 1054 "},"ã":{"ha":1439,"x_min":0,"x_max":0,"o":"m 1110 743 l 682 743 b 333 590 399 743 353 681 l 1110 590 m 1347 0 l 1110 0 l 1110 376 l 318 376 l 318 0 l 82 0 l 82 488 b 567 972 82 792 258 972 l 1347 972 m 421 1193 l 1118 1193 l 1118 1054 l 421 1054 "},"ä":{"ha":1439,"x_min":0,"x_max":0,"o":"m 1110 743 l 682 743 b 333 590 399 743 353 681 l 1110 590 m 1347 0 l 1110 0 l 1110 376 l 318 376 l 318 0 l 82 0 l 82 488 b 567 972 82 792 258 972 l 1347 972 m 1043 1044 l 850 1044 l 850 1215 l 1043 1215 m 690 1044 l 497 1044 l 497 1215 l 690 1215 "},"å":{"ha":1439,"x_min":0,"x_max":0,"o":"m 1110 743 l 682 743 b 333 590 399 743 353 681 l 1110 590 m 1347 0 l 1110 0 l 1110 376 l 318 376 l 318 0 l 82 0 l 82 488 b 567 972 82 792 258 972 l 1347 972 m 849 1207 l 739 1207 b 690 1156 700 1207 690 1196 l 690 1107 l 800 1107 b 849 1157 839 1107 849 1118 m 932 1279 l 932 1154 b 808 1033 932 1078 888 1033 l 607 1033 l 607 1157 b 728 1279 607 1232 651 1279 "},"æ":{"ha":2433,"x_min":0,"x_max":0,"o":"m 1110 376 l 318 376 l 318 0 l 82 0 l 82 488 b 567 972 82 792 258 972 l 2349 972 l 2349 743 l 1347 743 l 1347 594 l 2318 594 l 2318 376 l 1347 376 l 1347 231 l 2349 231 l 2349 0 l 1110 0 m 1110 743 l 682 743 b 333 594 400 743 353 681 l 1110 594 "},"ç":{"ha":1356,"x_min":0,"x_max":0,"o":"m 1294 0 l 81 0 l 81 488 b 567 972 81 792 257 972 l 1294 972 l 1294 743 l 571 743 b 317 483 401 743 317 657 l 317 231 l 1294 231 m 464 -87 l 992 -87 l 992 -146 l 728 -314 l 464 -146 "},"è":{"ha":1365,"x_min":0,"x_max":0,"o":"m 1314 743 l 317 743 l 317 594 l 1289 594 l 1289 376 l 329 376 b 571 231 358 282 426 231 l 1314 231 l 1314 0 l 567 0 b 81 483 265 0 81 186 l 81 972 l 1314 972 m 392 1279 l 847 1113 l 847 1054 l 392 1054 "},"é":{"ha":1365,"x_min":0,"x_max":0,"o":"m 1314 743 l 317 743 l 317 594 l 1289 594 l 1289 376 l 329 376 b 571 231 358 282 426 231 l 1314 231 l 1314 0 l 567 0 b 81 483 265 0 81 186 l 81 972 l 1314 972 m 972 1054 l 517 1054 l 517 1113 l 972 1279 "},"ê":{"ha":1365,"x_min":0,"x_max":0,"o":"m 1314 743 l 317 743 l 317 594 l 1289 594 l 1289 376 l 329 376 b 571 231 358 282 426 231 l 1314 231 l 1314 0 l 567 0 b 81 483 265 0 81 186 l 81 972 l 1314 972 m 418 1113 l 682 1279 l 946 1113 l 946 1054 l 418 1054 "},"ë":{"ha":1365,"x_min":0,"x_max":0,"o":"m 1314 743 l 317 743 l 317 594 l 1289 594 l 1289 376 l 329 376 b 571 231 358 282 426 231 l 1314 231 l 1314 0 l 567 0 b 81 483 265 0 81 186 l 81 972 l 1314 972 m 954 1044 l 761 1044 l 761 1215 l 954 1215 m 601 1044 l 408 1044 l 408 1215 l 601 1215 "},"ì":{"ha":454,"x_min":0,"x_max":0,"o":"m 360 0 l 124 0 l 124 972 l 360 972 m -46 1279 l 410 1113 l 410 1054 l -46 1054 "},"í":{"ha":447,"x_min":0,"x_max":0,"o":"m 326 0 l 90 0 l 90 972 l 326 972 m 503 1054 l 47 1054 l 47 1113 l 503 1279 "},"î":{"ha":467,"x_min":0,"x_max":0,"o":"m 349 0 l 113 0 l 113 972 l 349 972 m -31 1113 l 233 1279 l 497 1113 l 497 1054 l -31 1054 "},"ï":{"ha":474,"x_min":0,"x_max":0,"o":"m 351 0 l 115 0 l 115 972 l 351 972 m 510 1044 l 317 1044 l 317 1215 l 510 1215 m 157 1044 l -36 1044 l -36 1215 l 157 1215 "},"ð":{"ha":1399,"x_min":0,"x_max":0,"o":"m 24 594 l 486 594 l 486 376 l 326 376 l 326 231 l 826 231 b 1081 488 996 231 1081 315 l 1081 743 l 90 743 l 90 972 l 1317 972 l 1317 483 b 832 0 1317 181 1140 0 l 90 0 l 90 376 l 24 376 "},"ñ":{"ha":1500,"x_min":0,"x_max":0,"o":"m 1407 0 l 1157 0 b 381 697 890 364 633 601 b 317 721 363 703 340 713 b 321 653 319 686 321 663 l 321 0 l 90 0 l 90 972 l 294 972 b 1138 383 606 872 894 647 l 1181 338 b 1176 401 1178 367 1176 388 l 1176 972 l 1407 972 m 401 1193 l 1099 1193 l 1099 1054 l 401 1054 "},"ò":{"ha":1458,"x_min":0,"x_max":0,"o":"m 1135 743 l 571 743 b 317 483 376 743 317 683 l 317 231 l 881 231 b 1135 488 1071 231 1135 286 m 1371 972 l 1371 483 b 886 0 1371 181 1194 0 l 81 0 l 81 488 b 567 972 81 785 260 972 m 488 1279 l 943 1113 l 943 1054 l 488 1054 "},"ó":{"ha":1458,"x_min":0,"x_max":0,"o":"m 1135 743 l 571 743 b 317 483 376 743 317 683 l 317 231 l 881 231 b 1135 488 1071 231 1135 286 m 1371 972 l 1371 483 b 886 0 1371 181 1194 0 l 81 0 l 81 488 b 567 972 81 785 260 972 m 1069 1054 l 614 1054 l 614 1113 l 1069 1279 "},"ô":{"ha":1458,"x_min":0,"x_max":0,"o":"m 1135 743 l 571 743 b 317 483 376 743 317 683 l 317 231 l 881 231 b 1135 488 1071 231 1135 286 m 1371 972 l 1371 483 b 886 0 1371 181 1194 0 l 81 0 l 81 488 b 567 972 81 785 260 972 m 514 1113 l 778 1279 l 1042 1113 l 1042 1054 l 514 1054 "},"õ":{"ha":1458,"x_min":0,"x_max":0,"o":"m 1135 743 l 571 743 b 317 483 376 743 317 683 l 317 231 l 881 231 b 1135 488 1071 231 1135 286 m 1371 972 l 1371 483 b 886 0 1371 181 1194 0 l 81 0 l 81 488 b 567 972 81 785 260 972 m 431 1193 l 1128 1193 l 1128 1054 l 431 1054 "},"ö":{"ha":1458,"x_min":0,"x_max":0,"o":"m 1135 743 l 571 743 b 317 483 376 743 317 683 l 317 231 l 881 231 b 1135 488 1071 231 1135 286 m 1371 972 l 1371 483 b 886 0 1371 181 1194 0 l 81 0 l 81 488 b 567 972 81 785 260 972 m 1051 1044 l 858 1044 l 858 1215 l 1051 1215 m 699 1044 l 506 1044 l 506 1215 l 699 1215 "},"÷":{"ha":619,"x_min":0,"x_max":0,"o":"m 596 413 l 24 413 l 24 567 l 596 567 m 407 726 l 213 726 l 213 897 l 407 897 m 407 75 l 213 75 l 213 247 l 407 247 "},"ø":{"ha":1458,"x_min":0,"x_max":0,"o":"m 1371 861 l 1458 900 l 1458 750 l 1371 711 l 1371 483 b 886 0 1371 181 1194 0 l 81 0 l 81 121 l 0 85 l 0 235 l 81 272 l 81 488 b 567 972 81 785 260 972 l 1371 972 m 881 231 b 1135 488 1069 231 1135 286 l 1135 603 l 319 231 m 1113 743 l 571 743 b 317 483 376 743 317 683 l 317 381 "},"ù":{"ha":1396,"x_min":0,"x_max":0,"o":"m 326 972 l 326 499 b 690 231 326 319 447 231 l 1081 231 l 1081 972 l 1317 972 l 1317 0 l 629 0 b 90 514 300 0 90 181 l 90 972 m 407 1279 l 863 1113 l 863 1054 l 407 1054 "},"ú":{"ha":1396,"x_min":0,"x_max":0,"o":"m 326 972 l 326 499 b 690 231 326 319 447 231 l 1081 231 l 1081 972 l 1317 972 l 1317 0 l 629 0 b 90 514 300 0 90 181 l 90 972 m 989 1054 l 533 1054 l 533 1113 l 989 1279 "},"û":{"ha":1396,"x_min":0,"x_max":0,"o":"m 326 972 l 326 499 b 690 231 326 319 447 231 l 1081 231 l 1081 972 l 1317 972 l 1317 0 l 629 0 b 90 514 300 0 90 181 l 90 972 m 433 1113 l 697 1279 l 961 1113 l 961 1054 l 433 1054 "},"ü":{"ha":1396,"x_min":0,"x_max":0,"o":"m 326 972 l 326 499 b 690 231 326 319 447 231 l 1081 231 l 1081 972 l 1317 972 l 1317 0 l 629 0 b 90 514 300 0 90 181 l 90 972 m 971 1044 l 778 1044 l 778 1215 l 971 1215 m 618 1044 l 425 1044 l 425 1215 l 618 1215 "},"ý":{"ha":1450,"x_min":0,"x_max":0,"o":"m 1368 972 l 1368 483 b 883 0 1368 181 1193 0 l 90 0 l 90 231 l 878 231 b 1118 375 1022 231 1092 281 l 90 375 l 90 972 l 326 972 l 326 588 l 1132 588 l 1132 972 m 1015 1054 l 560 1054 l 560 1113 l 1015 1279 "},"þ":{"ha":1406,"x_min":0,"x_max":0,"o":"m 90 0 l 90 972 l 326 972 l 326 767 l 1343 767 l 1343 581 b 900 169 1343 307 1194 169 l 436 169 l 436 389 l 950 389 b 1114 538 1047 389 1100 442 l 326 538 l 326 0 "},"ÿ":{"ha":1450,"x_min":0,"x_max":0,"o":"m 1368 972 l 1368 483 b 883 0 1368 181 1193 0 l 90 0 l 90 231 l 878 231 b 1118 375 1022 231 1092 281 l 90 375 l 90 972 l 326 972 l 326 588 l 1132 588 l 1132 972 m 997 1044 l 804 1044 l 804 1215 l 997 1215 m 644 1044 l 451 1044 l 451 1215 l 644 1215 "},"Ā":{"ha":1439,"x_min":0,"x_max":0,"o":"m 1110 743 l 682 743 b 333 590 399 743 353 681 l 1110 590 m 1347 0 l 1110 0 l 1110 376 l 318 376 l 318 0 l 82 0 l 82 488 b 567 972 82 792 258 972 l 1347 972 m 421 1193 l 1118 1193 l 1118 1054 l 421 1054 "},"ā":{"ha":1439,"x_min":0,"x_max":0,"o":"m 1110 743 l 682 743 b 333 590 399 743 353 681 l 1110 590 m 1347 0 l 1110 0 l 1110 376 l 318 376 l 318 0 l 82 0 l 82 488 b 567 972 82 792 258 972 l 1347 972 m 421 1193 l 1118 1193 l 1118 1054 l 421 1054 "},"Ă":{"ha":1439,"x_min":0,"x_max":0,"o":"m 1110 743 l 682 743 b 333 590 399 743 353 681 l 1110 590 m 1347 0 l 1110 0 l 1110 376 l 318 376 l 318 0 l 82 0 l 82 488 b 567 972 82 792 258 972 l 1347 972 m 875 1279 l 985 1279 l 985 1222 b 821 1033 985 1103 926 1033 l 554 1033 l 554 1279 l 664 1279 l 664 1147 l 810 1147 b 875 1226 861 1147 875 1167 "},"ă":{"ha":1439,"x_min":0,"x_max":0,"o":"m 1110 743 l 682 743 b 333 590 399 743 353 681 l 1110 590 m 1347 0 l 1110 0 l 1110 376 l 318 376 l 318 0 l 82 0 l 82 488 b 567 972 82 792 258 972 l 1347 972 m 875 1279 l 985 1279 l 985 1222 b 821 1033 985 1103 926 1033 l 554 1033 l 554 1279 l 664 1279 l 664 1147 l 810 1147 b 875 1226 861 1147 875 1167 "},"Ą":{"ha":1439,"x_min":0,"x_max":0,"o":"m 876 -385 b 1110 0 876 -193 969 -60 l 1110 376 l 318 376 l 318 0 l 82 0 l 82 488 b 567 972 82 792 258 972 l 1347 972 l 1347 0 b 1179 -154 1258 -32 1185 -100 l 1372 -154 l 1372 -385 m 1110 743 l 682 743 b 333 590 399 743 353 681 l 1110 590 "},"ą":{"ha":1439,"x_min":0,"x_max":0,"o":"m 876 -385 b 1110 0 876 -193 969 -60 l 1110 376 l 318 376 l 318 0 l 82 0 l 82 488 b 567 972 82 792 258 972 l 1347 972 l 1347 0 b 1179 -154 1258 -32 1185 -100 l 1372 -154 l 1372 -385 m 1110 743 l 682 743 b 333 590 399 743 353 681 l 1110 590 "},"Ć":{"ha":1356,"x_min":0,"x_max":0,"o":"m 1294 0 l 81 0 l 81 488 b 567 972 81 792 257 972 l 1294 972 l 1294 743 l 571 743 b 317 483 401 743 317 657 l 317 231 l 1294 231 m 1019 1054 l 564 1054 l 564 1113 l 1019 1279 "},"ć":{"ha":1356,"x_min":0,"x_max":0,"o":"m 1294 0 l 81 0 l 81 488 b 567 972 81 792 257 972 l 1294 972 l 1294 743 l 571 743 b 317 483 401 743 317 657 l 317 231 l 1294 231 m 1019 1054 l 564 1054 l 564 1113 l 1019 1279 "},"Ċ":{"ha":1356,"x_min":0,"x_max":0,"o":"m 1294 0 l 81 0 l 81 488 b 567 972 81 792 257 972 l 1294 972 l 1294 743 l 571 743 b 317 483 401 743 317 657 l 317 231 l 1294 231 m 825 1044 l 632 1044 l 632 1215 l 825 1215 "},"ċ":{"ha":1356,"x_min":0,"x_max":0,"o":"m 1294 0 l 81 0 l 81 488 b 567 972 81 792 257 972 l 1294 972 l 1294 743 l 571 743 b 317 483 401 743 317 657 l 317 231 l 1294 231 m 825 1044 l 632 1044 l 632 1215 l 825 1215 "},"Č":{"ha":1356,"x_min":0,"x_max":0,"o":"m 1294 0 l 81 0 l 81 488 b 567 972 81 792 257 972 l 1294 972 l 1294 743 l 571 743 b 317 483 401 743 317 657 l 317 231 l 1294 231 m 464 1279 l 992 1279 l 992 1221 l 728 1054 l 464 1221 "},"č":{"ha":1356,"x_min":0,"x_max":0,"o":"m 1294 0 l 81 0 l 81 488 b 567 972 81 792 257 972 l 1294 972 l 1294 743 l 571 743 b 317 483 401 743 317 657 l 317 231 l 1294 231 m 464 1279 l 992 1279 l 992 1221 l 728 1054 l 464 1221 "},"Ď":{"ha":1399,"x_min":0,"x_max":0,"o":"m 1081 743 l 90 743 l 90 972 l 1317 972 l 1317 483 b 832 0 1317 181 1140 0 l 90 0 l 90 594 l 326 594 l 326 231 l 826 231 b 1081 488 996 231 1081 315 m 435 1279 l 963 1279 l 963 1221 l 699 1054 l 435 1221 "},"ď":{"ha":1399,"x_min":0,"x_max":0,"o":"m 1081 743 l 90 743 l 90 972 l 1317 972 l 1317 483 b 832 0 1317 181 1140 0 l 90 0 l 90 594 l 326 594 l 326 231 l 826 231 b 1081 488 996 231 1081 315 m 435 1279 l 963 1279 l 963 1221 l 699 1054 l 435 1221 "},"Đ":{"ha":1399,"x_min":0,"x_max":0,"o":"m 24 594 l 486 594 l 486 376 l 326 376 l 326 231 l 826 231 b 1081 488 996 231 1081 315 l 1081 743 l 90 743 l 90 972 l 1317 972 l 1317 483 b 832 0 1317 181 1140 0 l 90 0 l 90 376 l 24 376 "},"đ":{"ha":1399,"x_min":0,"x_max":0,"o":"m 24 594 l 486 594 l 486 376 l 326 376 l 326 231 l 826 231 b 1081 488 996 231 1081 315 l 1081 743 l 90 743 l 90 972 l 1317 972 l 1317 483 b 832 0 1317 181 1140 0 l 90 0 l 90 376 l 24 376 "},"Ē":{"ha":1365,"x_min":0,"x_max":0,"o":"m 1314 743 l 317 743 l 317 594 l 1289 594 l 1289 376 l 329 376 b 571 231 358 282 426 231 l 1314 231 l 1314 0 l 567 0 b 81 483 265 0 81 186 l 81 972 l 1314 972 m 333 1193 l 1031 1193 l 1031 1054 l 333 1054 "},"ē":{"ha":1365,"x_min":0,"x_max":0,"o":"m 1314 743 l 317 743 l 317 594 l 1289 594 l 1289 376 l 329 376 b 571 231 358 282 426 231 l 1314 231 l 1314 0 l 567 0 b 81 483 265 0 81 186 l 81 972 l 1314 972 m 333 1193 l 1031 1193 l 1031 1054 l 333 1054 "},"Ĕ":{"ha":1365,"x_min":0,"x_max":0,"o":"m 1314 743 l 317 743 l 317 594 l 1289 594 l 1289 376 l 329 376 b 571 231 358 282 426 231 l 1314 231 l 1314 0 l 567 0 b 81 483 265 0 81 186 l 81 972 l 1314 972 m 788 1279 l 897 1279 l 897 1222 b 733 1033 897 1103 839 1033 l 467 1033 l 467 1279 l 576 1279 l 576 1147 l 722 1147 b 788 1226 774 1147 788 1167 "},"ĕ":{"ha":1365,"x_min":0,"x_max":0,"o":"m 1314 743 l 317 743 l 317 594 l 1289 594 l 1289 376 l 329 376 b 571 231 358 282 426 231 l 1314 231 l 1314 0 l 567 0 b 81 483 265 0 81 186 l 81 972 l 1314 972 m 788 1279 l 897 1279 l 897 1222 b 733 1033 897 1103 839 1033 l 467 1033 l 467 1279 l 576 1279 l 576 1147 l 722 1147 b 788 1226 774 1147 788 1167 "},"Ė":{"ha":1365,"x_min":0,"x_max":0,"o":"m 1314 743 l 317 743 l 317 594 l 1289 594 l 1289 376 l 329 376 b 571 231 358 282 426 231 l 1314 231 l 1314 0 l 567 0 b 81 483 265 0 81 186 l 81 972 l 1314 972 m 778 1044 l 585 1044 l 585 1215 l 778 1215 "},"ė":{"ha":1365,"x_min":0,"x_max":0,"o":"m 1314 743 l 317 743 l 317 594 l 1289 594 l 1289 376 l 329 376 b 571 231 358 282 426 231 l 1314 231 l 1314 0 l 567 0 b 81 483 265 0 81 186 l 81 972 l 1314 972 m 778 1044 l 585 1044 l 585 1215 l 778 1215 "},"Ę":{"ha":1365,"x_min":0,"x_max":0,"o":"m 844 -385 b 1078 0 844 -193 939 -60 l 567 0 b 81 483 265 0 81 186 l 81 972 l 1314 972 l 1314 743 l 317 743 l 317 594 l 1164 594 l 1164 376 l 329 376 b 571 231 358 282 426 231 l 1314 231 l 1314 0 b 1146 -154 1225 -32 1153 -100 l 1340 -154 l 1340 -385 "},"ę":{"ha":1365,"x_min":0,"x_max":0,"o":"m 844 -385 b 1078 0 844 -193 939 -60 l 567 0 b 81 483 265 0 81 186 l 81 972 l 1314 972 l 1314 743 l 317 743 l 317 594 l 1164 594 l 1164 376 l 329 376 b 571 231 358 282 426 231 l 1314 231 l 1314 0 b 1146 -154 1225 -32 1153 -100 l 1340 -154 l 1340 -385 "},"Ě":{"ha":1365,"x_min":0,"x_max":0,"o":"m 1314 743 l 317 743 l 317 594 l 1289 594 l 1289 376 l 329 376 b 571 231 358 282 426 231 l 1314 231 l 1314 0 l 567 0 b 81 483 265 0 81 186 l 81 972 l 1314 972 m 418 1279 l 946 1279 l 946 1221 l 682 1054 l 418 1221 "},"ě":{"ha":1365,"x_min":0,"x_max":0,"o":"m 1314 743 l 317 743 l 317 594 l 1289 594 l 1289 376 l 329 376 b 571 231 358 282 426 231 l 1314 231 l 1314 0 l 567 0 b 81 483 265 0 81 186 l 81 972 l 1314 972 m 418 1279 l 946 1279 l 946 1221 l 682 1054 l 418 1221 "},"Ğ":{"ha":1436,"x_min":0,"x_max":0,"o":"m 1353 972 l 1353 743 l 571 743 b 317 479 374 743 317 685 l 317 231 l 1122 231 l 1122 376 l 946 376 l 946 594 l 1358 594 l 1358 0 l 82 0 l 82 488 b 567 972 82 792 257 972 m 875 1279 l 985 1279 l 985 1222 b 821 1033 985 1103 926 1033 l 554 1033 l 554 1279 l 664 1279 l 664 1147 l 810 1147 b 875 1226 861 1147 875 1167 "},"ğ":{"ha":1436,"x_min":0,"x_max":0,"o":"m 1353 972 l 1353 743 l 571 743 b 317 479 374 743 317 685 l 317 231 l 1122 231 l 1122 376 l 946 376 l 946 594 l 1358 594 l 1358 0 l 82 0 l 82 488 b 567 972 82 792 257 972 m 875 1279 l 985 1279 l 985 1222 b 821 1033 985 1103 926 1033 l 554 1033 l 554 1279 l 664 1279 l 664 1147 l 810 1147 b 875 1226 861 1147 875 1167 "},"Ġ":{"ha":1436,"x_min":0,"x_max":0,"o":"m 1353 972 l 1353 743 l 571 743 b 317 479 374 743 317 685 l 317 231 l 1122 231 l 1122 376 l 946 376 l 946 594 l 1358 594 l 1358 0 l 82 0 l 82 488 b 567 972 82 792 257 972 m 865 1044 l 672 1044 l 672 1215 l 865 1215 "},"ġ":{"ha":1436,"x_min":0,"x_max":0,"o":"m 1353 972 l 1353 743 l 571 743 b 317 479 374 743 317 685 l 317 231 l 1122 231 l 1122 376 l 946 376 l 946 594 l 1358 594 l 1358 0 l 82 0 l 82 488 b 567 972 82 792 257 972 m 865 1044 l 672 1044 l 672 1215 l 865 1215 "},"Ģ":{"ha":1436,"x_min":0,"x_max":0,"o":"m 1353 972 l 1353 743 l 571 743 b 317 479 374 743 317 685 l 317 231 l 1122 231 l 1122 376 l 946 376 l 946 594 l 1358 594 l 1358 0 l 82 0 l 82 488 b 567 972 82 792 257 972 m 404 -87 l 932 -87 l 932 -146 l 668 -314 l 404 -146 "},"ģ":{"ha":1436,"x_min":0,"x_max":0,"o":"m 1353 972 l 1353 743 l 571 743 b 317 479 374 743 317 685 l 317 231 l 1122 231 l 1122 376 l 946 376 l 946 594 l 1358 594 l 1358 0 l 82 0 l 82 488 b 567 972 82 792 257 972 m 404 -87 l 932 -87 l 932 -146 l 668 -314 l 404 -146 "},"Ħ":{"ha":1408,"x_min":0,"x_max":0,"o":"m 0 854 l 90 854 l 90 972 l 326 972 l 326 854 l 1081 854 l 1081 972 l 1317 972 l 1317 854 l 1408 854 l 1408 715 l 1317 715 l 1317 0 l 1081 0 l 1081 375 l 326 375 l 326 0 l 90 0 l 90 715 l 0 715 m 1081 594 l 1081 715 l 326 715 l 326 594 "},"ħ":{"ha":1408,"x_min":0,"x_max":0,"o":"m 0 854 l 90 854 l 90 972 l 326 972 l 326 854 l 1081 854 l 1081 972 l 1317 972 l 1317 854 l 1408 854 l 1408 715 l 1317 715 l 1317 0 l 1081 0 l 1081 375 l 326 375 l 326 0 l 90 0 l 90 715 l 0 715 m 1081 594 l 1081 715 l 326 715 l 326 594 "},"Ī":{"ha":625,"x_min":0,"x_max":0,"o":"m 428 0 l 192 0 l 192 972 l 428 972 m -35 1193 l 663 1193 l 663 1054 l -35 1054 "},"ī":{"ha":625,"x_min":0,"x_max":0,"o":"m 428 0 l 192 0 l 192 972 l 428 972 m -35 1193 l 663 1193 l 663 1054 l -35 1054 "},"Ĭ":{"ha":458,"x_min":0,"x_max":0,"o":"m 344 0 l 108 0 l 108 972 l 344 972 m 335 1279 l 444 1279 l 444 1222 b 281 1033 444 1103 386 1033 l 14 1033 l 14 1279 l 124 1279 l 124 1147 l 269 1147 b 335 1226 321 1147 335 1167 "},"ĭ":{"ha":458,"x_min":0,"x_max":0,"o":"m 344 0 l 108 0 l 108 972 l 344 972 m 335 1279 l 444 1279 l 444 1222 b 281 1033 444 1103 386 1033 l 14 1033 l 14 1279 l 124 1279 l 124 1147 l 269 1147 b 335 1226 321 1147 335 1167 "},"Į":{"ha":421,"x_min":0,"x_max":0,"o":"m -143 -385 b 90 0 -143 -193 -49 -60 l 90 972 l 326 972 l 326 0 b 158 -154 238 -32 165 -100 l 353 -154 l 353 -385 "},"į":{"ha":421,"x_min":0,"x_max":0,"o":"m -143 -385 b 90 0 -143 -193 -49 -60 l 90 972 l 326 972 l 326 0 b 158 -154 238 -32 165 -100 l 353 -154 l 353 -385 "},"İ":{"ha":421,"x_min":0,"x_max":0,"o":"m 326 0 l 90 0 l 90 972 l 326 972 m 307 1044 l 114 1044 l 114 1215 l 307 1215 "},"ı":{"ha":421,"x_min":0,"x_max":0,"o":"m 326 0 l 90 0 l 90 972 l 326 972 "},"Ĳ":{"ha":1282,"x_min":0,"x_max":0,"o":"m 326 103 l 90 103 l 90 972 l 326 972 m 778 972 l 1190 972 l 1190 -386 l 568 -386 b 90 -10 303 -386 122 -228 l 335 -10 b 574 -156 367 -107 447 -156 l 953 -156 l 953 743 l 778 743 "},"ĳ":{"ha":1282,"x_min":0,"x_max":0,"o":"m 326 103 l 90 103 l 90 972 l 326 972 m 778 972 l 1190 972 l 1190 -386 l 568 -386 b 90 -10 303 -386 122 -228 l 335 -10 b 574 -156 367 -107 447 -156 l 953 -156 l 953 743 l 778 743 "},"Ķ":{"ha":1418,"x_min":0,"x_max":0,"o":"m 326 0 l 90 0 l 90 972 l 326 972 l 326 594 l 696 594 l 1026 972 l 1322 972 l 975 585 b 1338 113 1203 540 1338 378 l 1338 0 l 1100 0 l 1100 118 b 846 376 1100 290 1015 376 l 326 376 m 444 -87 l 972 -87 l 972 -146 l 708 -314 l 444 -146 "},"ķ":{"ha":1418,"x_min":0,"x_max":0,"o":"m 326 0 l 90 0 l 90 972 l 326 972 l 326 594 l 696 594 l 1026 972 l 1322 972 l 975 585 b 1338 113 1203 540 1338 378 l 1338 0 l 1100 0 l 1100 118 b 846 376 1100 290 1015 376 l 326 376 m 444 -87 l 972 -87 l 972 -146 l 708 -314 l 444 -146 "},"Ĺ":{"ha":1342,"x_min":0,"x_max":0,"o":"m 326 972 l 326 231 l 833 231 b 1071 376 958 231 1038 279 l 1315 376 b 838 0 1274 128 1100 0 l 90 0 l 90 972 m 610 1054 l 154 1054 l 154 1113 l 610 1279 "},"ĺ":{"ha":1342,"x_min":0,"x_max":0,"o":"m 326 972 l 326 231 l 833 231 b 1071 376 958 231 1038 279 l 1315 376 b 838 0 1274 128 1100 0 l 90 0 l 90 972 m 610 1054 l 154 1054 l 154 1113 l 610 1279 "},"Ļ":{"ha":1342,"x_min":0,"x_max":0,"o":"m 326 972 l 326 231 l 833 231 b 1071 376 958 231 1038 279 l 1315 376 b 838 0 1274 128 1100 0 l 90 0 l 90 972 m 356 -87 l 883 -87 l 883 -146 l 619 -314 l 356 -146 "},"ļ":{"ha":1342,"x_min":0,"x_max":0,"o":"m 326 972 l 326 231 l 833 231 b 1071 376 958 231 1038 279 l 1315 376 b 838 0 1274 128 1100 0 l 90 0 l 90 972 m 356 -87 l 883 -87 l 883 -146 l 619 -314 l 356 -146 "},"Ľ":{"ha":1342,"x_min":0,"x_max":0,"o":"m 326 972 l 326 231 l 833 231 b 1071 376 958 231 1038 279 l 1315 376 b 838 0 1274 128 1100 0 l 90 0 l 90 972 m 571 671 l 456 671 l 456 972 l 653 972 "},"ľ":{"ha":1342,"x_min":0,"x_max":0,"o":"m 326 972 l 326 231 l 833 231 b 1071 376 958 231 1038 279 l 1315 376 b 838 0 1274 128 1100 0 l 90 0 l 90 972 m 571 671 l 456 671 l 456 972 l 653 972 "},"Ŀ":{"ha":1342,"x_min":0,"x_max":0,"o":"m 326 972 l 326 231 l 833 231 b 1071 376 958 231 1038 279 l 1315 376 b 838 0 1274 128 1100 0 l 90 0 l 90 972 m 650 450 l 457 450 l 457 621 l 650 621 "},"ŀ":{"ha":1342,"x_min":0,"x_max":0,"o":"m 326 972 l 326 231 l 833 231 b 1071 376 958 231 1038 279 l 1315 376 b 838 0 1274 128 1100 0 l 90 0 l 90 972 m 650 450 l 457 450 l 457 621 l 650 621 "},"Ł":{"ha":1371,"x_min":0,"x_max":0,"o":"m 786 660 l 356 608 l 356 231 l 861 231 b 1100 376 988 231 1067 279 l 1344 376 b 867 0 1303 128 1128 0 l 119 0 l 119 581 l 29 571 l 29 764 l 119 774 l 119 972 l 356 972 l 356 801 l 786 853 "},"ł":{"ha":1371,"x_min":0,"x_max":0,"o":"m 786 660 l 356 608 l 356 231 l 861 231 b 1100 376 988 231 1067 279 l 1344 376 b 867 0 1303 128 1128 0 l 119 0 l 119 581 l 29 571 l 29 764 l 119 774 l 119 972 l 356 972 l 356 801 l 786 853 "},"Ń":{"ha":1500,"x_min":0,"x_max":0,"o":"m 1407 0 l 1157 0 b 381 697 890 364 633 601 b 317 721 363 703 340 713 b 321 653 319 686 321 663 l 321 0 l 90 0 l 90 972 l 294 972 b 1138 383 606 872 894 647 l 1181 338 b 1176 401 1178 367 1176 388 l 1176 972 l 1407 972 m 1040 1054 l 585 1054 l 585 1113 l 1040 1279 "},"ń":{"ha":1500,"x_min":0,"x_max":0,"o":"m 1407 0 l 1157 0 b 381 697 890 364 633 601 b 317 721 363 703 340 713 b 321 653 319 686 321 663 l 321 0 l 90 0 l 90 972 l 294 972 b 1138 383 606 872 894 647 l 1181 338 b 1176 401 1178 367 1176 388 l 1176 972 l 1407 972 m 1040 1054 l 585 1054 l 585 1113 l 1040 1279 "},"Ņ":{"ha":1500,"x_min":0,"x_max":0,"o":"m 1407 0 l 1157 0 b 381 697 890 364 633 601 b 317 721 363 703 340 713 b 321 653 319 686 321 663 l 321 0 l 90 0 l 90 972 l 294 972 b 1138 383 606 872 894 647 l 1181 338 b 1176 401 1178 367 1176 388 l 1176 972 l 1407 972 m 461 -87 l 989 -87 l 989 -146 l 725 -314 l 461 -146 "},"ņ":{"ha":1500,"x_min":0,"x_max":0,"o":"m 1407 0 l 1157 0 b 381 697 890 364 633 601 b 317 721 363 703 340 713 b 321 653 319 686 321 663 l 321 0 l 90 0 l 90 972 l 294 972 b 1138 383 606 872 894 647 l 1181 338 b 1176 401 1178 367 1176 388 l 1176 972 l 1407 972 m 461 -87 l 989 -87 l 989 -146 l 725 -314 l 461 -146 "},"Ň":{"ha":1500,"x_min":0,"x_max":0,"o":"m 1407 0 l 1157 0 b 381 697 890 364 633 601 b 317 721 363 703 340 713 b 321 653 319 686 321 663 l 321 0 l 90 0 l 90 972 l 294 972 b 1138 383 606 872 894 647 l 1181 338 b 1176 401 1178 367 1176 388 l 1176 972 l 1407 972 m 486 1279 l 1014 1279 l 1014 1221 l 750 1054 l 486 1221 "},"ň":{"ha":1500,"x_min":0,"x_max":0,"o":"m 1407 0 l 1157 0 b 381 697 890 364 633 601 b 317 721 363 703 340 713 b 321 653 319 686 321 663 l 321 0 l 90 0 l 90 972 l 294 972 b 1138 383 606 872 894 647 l 1181 338 b 1176 401 1178 367 1176 388 l 1176 972 l 1407 972 m 486 1279 l 1014 1279 l 1014 1221 l 750 1054 l 486 1221 "},"Ŋ":{"ha":1500,"x_min":0,"x_max":0,"o":"m 1407 -385 l 1025 -385 b 547 -8 760 -385 579 -226 l 792 -8 b 1031 -154 824 -106 903 -154 l 1171 -154 l 1171 -24 b 381 697 890 364 633 601 b 317 721 363 703 340 713 b 321 653 319 686 321 663 l 321 0 l 90 0 l 90 972 l 294 972 b 1138 383 606 872 894 647 l 1181 338 b 1176 401 1178 367 1176 388 l 1176 972 l 1407 972 "},"ŋ":{"ha":1500,"x_min":0,"x_max":0,"o":"m 1407 -385 l 1025 -385 b 547 -8 760 -385 579 -226 l 792 -8 b 1031 -154 824 -106 903 -154 l 1171 -154 l 1171 -24 b 381 697 890 364 633 601 b 317 721 363 703 340 713 b 321 653 319 686 321 663 l 321 0 l 90 0 l 90 972 l 294 972 b 1138 383 606 872 894 647 l 1181 338 b 1176 401 1178 367 1176 388 l 1176 972 l 1407 972 "},"Ō":{"ha":1458,"x_min":0,"x_max":0,"o":"m 1135 743 l 571 743 b 317 483 376 743 317 683 l 317 231 l 881 231 b 1135 488 1071 231 1135 286 m 1371 972 l 1371 483 b 886 0 1371 181 1194 0 l 81 0 l 81 488 b 567 972 81 785 260 972 m 431 1193 l 1128 1193 l 1128 1054 l 431 1054 "},"ō":{"ha":1458,"x_min":0,"x_max":0,"o":"m 1135 743 l 571 743 b 317 483 376 743 317 683 l 317 231 l 881 231 b 1135 488 1071 231 1135 286 m 1371 972 l 1371 483 b 886 0 1371 181 1194 0 l 81 0 l 81 488 b 567 972 81 785 260 972 m 431 1193 l 1128 1193 l 1128 1054 l 431 1054 "},"Ŏ":{"ha":1458,"x_min":0,"x_max":0,"o":"m 1135 743 l 571 743 b 317 483 376 743 317 683 l 317 231 l 881 231 b 1135 488 1071 231 1135 286 m 1371 972 l 1371 483 b 886 0 1371 181 1194 0 l 81 0 l 81 488 b 567 972 81 785 260 972 m 885 1279 l 994 1279 l 994 1222 b 831 1033 994 1103 936 1033 l 564 1033 l 564 1279 l 674 1279 l 674 1147 l 819 1147 b 885 1226 871 1147 885 1167 "},"ŏ":{"ha":1458,"x_min":0,"x_max":0,"o":"m 1135 743 l 571 743 b 317 483 376 743 317 683 l 317 231 l 881 231 b 1135 488 1071 231 1135 286 m 1371 972 l 1371 483 b 886 0 1371 181 1194 0 l 81 0 l 81 488 b 567 972 81 785 260 972 m 885 1279 l 994 1279 l 994 1222 b 831 1033 994 1103 936 1033 l 564 1033 l 564 1279 l 674 1279 l 674 1147 l 819 1147 b 885 1226 871 1147 885 1167 "},"Ő":{"ha":1458,"x_min":0,"x_max":0,"o":"m 1135 743 l 571 743 b 317 483 376 743 317 683 l 317 231 l 881 231 b 1135 488 1071 231 1135 286 m 1371 972 l 1371 483 b 886 0 1371 181 1194 0 l 81 0 l 81 488 b 567 972 81 785 260 972 m 1232 1054 l 776 1054 l 776 1113 l 1232 1279 m 906 1211 l 722 1143 l 722 1054 l 450 1054 l 450 1113 l 906 1279 "},"ő":{"ha":1458,"x_min":0,"x_max":0,"o":"m 1135 743 l 571 743 b 317 483 376 743 317 683 l 317 231 l 881 231 b 1135 488 1071 231 1135 286 m 1371 972 l 1371 483 b 886 0 1371 181 1194 0 l 81 0 l 81 488 b 567 972 81 785 260 972 m 1232 1054 l 776 1054 l 776 1113 l 1232 1279 m 906 1211 l 722 1143 l 722 1054 l 450 1054 l 450 1113 l 906 1279 "},"Œ":{"ha":2454,"x_min":0,"x_max":0,"o":"m 2371 0 l 81 0 l 81 488 b 567 972 81 785 260 972 l 2371 972 l 2371 743 l 1372 743 l 1372 594 l 2344 594 l 2344 376 l 1372 376 l 1372 231 l 2371 231 m 1135 743 l 571 743 b 317 483 376 743 317 683 l 317 231 l 1135 231 "},"œ":{"ha":2454,"x_min":0,"x_max":0,"o":"m 2371 0 l 81 0 l 81 488 b 567 972 81 785 260 972 l 2371 972 l 2371 743 l 1372 743 l 1372 594 l 2344 594 l 2344 376 l 1372 376 l 1372 231 l 2371 231 m 1135 743 l 571 743 b 317 483 376 743 317 683 l 317 231 l 1135 231 "},"Ŕ":{"ha":1463,"x_min":0,"x_max":0,"o":"m 436 594 l 989 594 b 1153 743 1085 594 1139 647 l 326 743 l 326 0 l 90 0 l 90 972 l 1382 972 l 1382 786 b 1024 381 1382 540 1263 406 l 1393 0 l 1107 0 l 732 376 l 436 376 m 1022 1054 l 567 1054 l 567 1113 l 1022 1279 "},"ŕ":{"ha":1463,"x_min":0,"x_max":0,"o":"m 436 594 l 989 594 b 1153 743 1085 594 1139 647 l 326 743 l 326 0 l 90 0 l 90 972 l 1382 972 l 1382 786 b 1024 381 1382 540 1263 406 l 1393 0 l 1107 0 l 732 376 l 436 376 m 1022 1054 l 567 1054 l 567 1113 l 1022 1279 "},"Ŗ":{"ha":1463,"x_min":0,"x_max":0,"o":"m 436 594 l 989 594 b 1153 743 1085 594 1139 647 l 326 743 l 326 0 l 90 0 l 90 972 l 1382 972 l 1382 786 b 1024 381 1382 540 1263 406 l 1393 0 l 1107 0 l 732 376 l 436 376 m 442 -87 l 969 -87 l 969 -146 l 706 -314 l 442 -146 "},"ŗ":{"ha":1463,"x_min":0,"x_max":0,"o":"m 436 594 l 989 594 b 1153 743 1085 594 1139 647 l 326 743 l 326 0 l 90 0 l 90 972 l 1382 972 l 1382 786 b 1024 381 1382 540 1263 406 l 1393 0 l 1107 0 l 732 376 l 436 376 m 442 -87 l 969 -87 l 969 -146 l 706 -314 l 442 -146 "},"Ř":{"ha":1463,"x_min":0,"x_max":0,"o":"m 436 594 l 989 594 b 1153 743 1085 594 1139 647 l 326 743 l 326 0 l 90 0 l 90 972 l 1382 972 l 1382 786 b 1024 381 1382 540 1263 406 l 1393 0 l 1107 0 l 732 376 l 436 376 m 467 1279 l 994 1279 l 994 1221 l 731 1054 l 467 1221 "},"ř":{"ha":1463,"x_min":0,"x_max":0,"o":"m 436 594 l 989 594 b 1153 743 1085 594 1139 647 l 326 743 l 326 0 l 90 0 l 90 972 l 1382 972 l 1382 786 b 1024 381 1382 540 1263 406 l 1393 0 l 1107 0 l 732 376 l 436 376 m 467 1279 l 994 1279 l 994 1221 l 731 1054 l 467 1221 "},"Ś":{"ha":1356,"x_min":0,"x_max":0,"o":"m 1269 743 l 474 743 b 307 594 375 743 319 694 l 1274 594 l 1274 410 b 832 0 1274 138 1126 0 l 82 0 l 82 231 l 882 231 b 1047 376 978 231 1032 282 l 82 376 l 82 563 b 525 972 82 835 229 972 l 1269 972 m 1019 1054 l 564 1054 l 564 1113 l 1019 1279 "},"ś":{"ha":1356,"x_min":0,"x_max":0,"o":"m 1269 743 l 474 743 b 307 594 375 743 319 694 l 1274 594 l 1274 410 b 832 0 1274 138 1126 0 l 82 0 l 82 231 l 882 231 b 1047 376 978 231 1032 282 l 82 376 l 82 563 b 525 972 82 835 229 972 l 1269 972 m 1019 1054 l 564 1054 l 564 1113 l 1019 1279 "},"Ş":{"ha":1356,"x_min":0,"x_max":0,"o":"m 1269 743 l 474 743 b 307 594 375 743 319 694 l 1274 594 l 1274 410 b 832 0 1274 138 1126 0 l 82 0 l 82 231 l 882 231 b 1047 376 978 231 1032 282 l 82 376 l 82 563 b 525 972 82 835 229 972 l 1269 972 m 364 -87 l 892 -87 l 892 -146 l 628 -314 l 364 -146 "},"ş":{"ha":1356,"x_min":0,"x_max":0,"o":"m 1269 743 l 474 743 b 307 594 375 743 319 694 l 1274 594 l 1274 410 b 832 0 1274 138 1126 0 l 82 0 l 82 231 l 882 231 b 1047 376 978 231 1032 282 l 82 376 l 82 563 b 525 972 82 835 229 972 l 1269 972 m 364 -87 l 892 -87 l 892 -146 l 628 -314 l 364 -146 "},"Š":{"ha":1356,"x_min":0,"x_max":0,"o":"m 1269 743 l 474 743 b 307 594 375 743 319 694 l 1274 594 l 1274 410 b 832 0 1274 138 1126 0 l 82 0 l 82 231 l 882 231 b 1047 376 978 231 1032 282 l 82 376 l 82 563 b 525 972 82 835 229 972 l 1269 972 m 464 1279 l 992 1279 l 992 1221 l 728 1054 l 464 1221 "},"š":{"ha":1356,"x_min":0,"x_max":0,"o":"m 1269 743 l 474 743 b 307 594 375 743 319 694 l 1274 594 l 1274 410 b 832 0 1274 138 1126 0 l 82 0 l 82 231 l 882 231 b 1047 376 978 231 1032 282 l 82 376 l 82 563 b 525 972 82 835 229 972 l 1269 972 m 464 1279 l 992 1279 l 992 1221 l 728 1054 l 464 1221 "},"Ţ":{"ha":1314,"x_min":0,"x_max":0,"o":"m 1274 743 l 826 743 l 826 0 l 590 0 l 590 743 l 426 743 b 260 594 324 743 268 694 l 36 594 b 464 972 57 847 199 972 l 1274 972 m 446 -87 l 974 -87 l 974 -146 l 710 -314 l 446 -146 "},"ţ":{"ha":1314,"x_min":0,"x_max":0,"o":"m 1274 743 l 826 743 l 826 0 l 590 0 l 590 743 l 426 743 b 260 594 324 743 268 694 l 36 594 b 464 972 57 847 199 972 l 1274 972 m 446 -87 l 974 -87 l 974 -146 l 710 -314 l 446 -146 "},"Ť":{"ha":1314,"x_min":0,"x_max":0,"o":"m 1274 743 l 826 743 l 826 0 l 590 0 l 590 743 l 426 743 b 260 594 324 743 268 694 l 36 594 b 464 972 57 847 199 972 l 1274 972 m 446 1279 l 974 1279 l 974 1221 l 710 1054 l 446 1221 "},"ť":{"ha":1314,"x_min":0,"x_max":0,"o":"m 1274 743 l 826 743 l 826 0 l 590 0 l 590 743 l 426 743 b 260 594 324 743 268 694 l 36 594 b 464 972 57 847 199 972 l 1274 972 m 446 1279 l 974 1279 l 974 1221 l 710 1054 l 446 1221 "},"Ŧ":{"ha":1314,"x_min":0,"x_max":0,"o":"m 999 463 l 826 463 l 826 0 l 590 0 l 590 463 l 421 463 l 421 618 l 590 618 l 590 743 l 426 743 b 260 594 324 743 268 694 l 36 594 b 464 972 57 847 199 972 l 1274 972 l 1274 743 l 826 743 l 826 618 l 999 618 "},"ŧ":{"ha":1314,"x_min":0,"x_max":0,"o":"m 999 463 l 826 463 l 826 0 l 590 0 l 590 463 l 421 463 l 421 618 l 590 618 l 590 743 l 426 743 b 260 594 324 743 268 694 l 36 594 b 464 972 57 847 199 972 l 1274 972 l 1274 743 l 826 743 l 826 618 l 999 618 "},"Ũ":{"ha":1396,"x_min":0,"x_max":0,"o":"m 326 972 l 326 499 b 690 231 326 319 447 231 l 1081 231 l 1081 972 l 1317 972 l 1317 0 l 629 0 b 90 514 300 0 90 181 l 90 972 m 350 1193 l 1047 1193 l 1047 1054 l 350 1054 "},"ũ":{"ha":1396,"x_min":0,"x_max":0,"o":"m 326 972 l 326 499 b 690 231 326 319 447 231 l 1081 231 l 1081 972 l 1317 972 l 1317 0 l 629 0 b 90 514 300 0 90 181 l 90 972 m 350 1193 l 1047 1193 l 1047 1054 l 350 1054 "},"Ū":{"ha":1396,"x_min":0,"x_max":0,"o":"m 326 972 l 326 499 b 690 231 326 319 447 231 l 1081 231 l 1081 972 l 1317 972 l 1317 0 l 629 0 b 90 514 300 0 90 181 l 90 972 m 350 1193 l 1047 1193 l 1047 1054 l 350 1054 "},"ū":{"ha":1396,"x_min":0,"x_max":0,"o":"m 326 972 l 326 499 b 690 231 326 319 447 231 l 1081 231 l 1081 972 l 1317 972 l 1317 0 l 629 0 b 90 514 300 0 90 181 l 90 972 m 350 1193 l 1047 1193 l 1047 1054 l 350 1054 "},"Ŭ":{"ha":1396,"x_min":0,"x_max":0,"o":"m 326 972 l 326 499 b 690 231 326 319 447 231 l 1081 231 l 1081 972 l 1317 972 l 1317 0 l 629 0 b 90 514 300 0 90 181 l 90 972 m 804 1279 l 914 1279 l 914 1222 b 750 1033 914 1103 856 1033 l 483 1033 l 483 1279 l 593 1279 l 593 1147 l 739 1147 b 804 1226 790 1147 804 1167 "},"ŭ":{"ha":1396,"x_min":0,"x_max":0,"o":"m 326 972 l 326 499 b 690 231 326 319 447 231 l 1081 231 l 1081 972 l 1317 972 l 1317 0 l 629 0 b 90 514 300 0 90 181 l 90 972 m 804 1279 l 914 1279 l 914 1222 b 750 1033 914 1103 856 1033 l 483 1033 l 483 1279 l 593 1279 l 593 1147 l 739 1147 b 804 1226 790 1147 804 1167 "},"Ů":{"ha":1396,"x_min":0,"x_max":0,"o":"m 326 972 l 326 499 b 690 231 326 319 447 231 l 1081 231 l 1081 972 l 1317 972 l 1317 0 l 629 0 b 90 514 300 0 90 181 l 90 972 m 778 1207 l 668 1207 b 619 1156 629 1207 619 1196 l 619 1107 l 729 1107 b 778 1157 768 1107 778 1118 m 861 1279 l 861 1154 b 738 1033 861 1078 817 1033 l 536 1033 l 536 1157 b 657 1279 536 1232 581 1279 "},"ů":{"ha":1396,"x_min":0,"x_max":0,"o":"m 326 972 l 326 499 b 690 231 326 319 447 231 l 1081 231 l 1081 972 l 1317 972 l 1317 0 l 629 0 b 90 514 300 0 90 181 l 90 972 m 778 1207 l 668 1207 b 619 1156 629 1207 619 1196 l 619 1107 l 729 1107 b 778 1157 768 1107 778 1118 m 861 1279 l 861 1154 b 738 1033 861 1078 817 1033 l 536 1033 l 536 1157 b 657 1279 536 1232 581 1279 "},"Ű":{"ha":1396,"x_min":0,"x_max":0,"o":"m 326 972 l 326 499 b 690 231 326 319 447 231 l 1081 231 l 1081 972 l 1317 972 l 1317 0 l 629 0 b 90 514 300 0 90 181 l 90 972 m 1151 1054 l 696 1054 l 696 1113 l 1151 1279 m 825 1211 l 642 1143 l 642 1054 l 369 1054 l 369 1113 l 825 1279 "},"ű":{"ha":1396,"x_min":0,"x_max":0,"o":"m 326 972 l 326 499 b 690 231 326 319 447 231 l 1081 231 l 1081 972 l 1317 972 l 1317 0 l 629 0 b 90 514 300 0 90 181 l 90 972 m 1151 1054 l 696 1054 l 696 1113 l 1151 1279 m 825 1211 l 642 1143 l 642 1054 l 369 1054 l 369 1113 l 825 1279 "},"Ų":{"ha":1396,"x_min":0,"x_max":0,"o":"m 847 -385 b 1081 0 847 -193 940 -60 l 629 0 b 90 514 300 0 90 181 l 90 972 l 326 972 l 326 499 b 690 231 326 319 447 231 l 1081 231 l 1081 972 l 1317 972 l 1317 0 b 1149 -154 1228 -32 1154 -100 l 1342 -154 l 1342 -385 "},"ų":{"ha":1396,"x_min":0,"x_max":0,"o":"m 847 -385 b 1081 0 847 -193 940 -60 l 629 0 b 90 514 300 0 90 181 l 90 972 l 326 972 l 326 499 b 690 231 326 319 447 231 l 1081 231 l 1081 972 l 1317 972 l 1317 0 b 1149 -154 1228 -32 1154 -100 l 1342 -154 l 1342 -385 "},"Ŵ":{"ha":1710,"x_min":0,"x_max":0,"o":"m 993 349 l 756 349 l 756 972 l 993 972 m 1626 0 l 576 0 b 90 446 288 0 90 182 l 90 972 l 326 972 l 326 485 b 576 231 326 314 408 231 l 1392 231 l 1392 972 l 1626 972 m 611 1113 l 875 1279 l 1139 1113 l 1139 1054 l 611 1054 "},"ŵ":{"ha":1710,"x_min":0,"x_max":0,"o":"m 993 349 l 756 349 l 756 972 l 993 972 m 1626 0 l 576 0 b 90 446 288 0 90 182 l 90 972 l 326 972 l 326 485 b 576 231 326 314 408 231 l 1392 231 l 1392 972 l 1626 972 m 611 1113 l 875 1279 l 1139 1113 l 1139 1054 l 611 1054 "},"Ŷ":{"ha":1450,"x_min":0,"x_max":0,"o":"m 1368 972 l 1368 483 b 883 0 1368 181 1193 0 l 90 0 l 90 231 l 878 231 b 1118 375 1022 231 1092 281 l 90 375 l 90 972 l 326 972 l 326 588 l 1132 588 l 1132 972 m 461 1113 l 725 1279 l 989 1113 l 989 1054 l 461 1054 "},"ŷ":{"ha":1450,"x_min":0,"x_max":0,"o":"m 1368 972 l 1368 483 b 883 0 1368 181 1193 0 l 90 0 l 90 231 l 878 231 b 1118 375 1022 231 1092 281 l 90 375 l 90 972 l 326 972 l 326 588 l 1132 588 l 1132 972 m 461 1113 l 725 1279 l 989 1113 l 989 1054 l 461 1054 "},"Ÿ":{"ha":1450,"x_min":0,"x_max":0,"o":"m 1368 972 l 1368 483 b 883 0 1368 181 1193 0 l 90 0 l 90 231 l 878 231 b 1118 375 1022 231 1092 281 l 90 375 l 90 972 l 326 972 l 326 588 l 1132 588 l 1132 972 m 997 1044 l 804 1044 l 804 1215 l 997 1215 m 644 1044 l 451 1044 l 451 1215 l 644 1215 "},"Ź":{"ha":1369,"x_min":0,"x_max":0,"o":"m 1297 972 l 561 210 l 935 210 b 1100 376 1032 210 1086 274 l 1326 376 b 885 0 1314 126 1167 0 l 38 0 l 793 764 l 149 764 l 149 972 m 975 1054 l 519 1054 l 519 1113 l 975 1279 "},"ź":{"ha":1369,"x_min":0,"x_max":0,"o":"m 1297 972 l 561 210 l 935 210 b 1100 376 1032 210 1086 274 l 1326 376 b 885 0 1314 126 1167 0 l 38 0 l 793 764 l 149 764 l 149 972 m 975 1054 l 519 1054 l 519 1113 l 975 1279 "},"Ż":{"ha":1369,"x_min":0,"x_max":0,"o":"m 1297 972 l 561 210 l 935 210 b 1100 376 1032 210 1086 274 l 1326 376 b 885 0 1314 126 1167 0 l 38 0 l 793 764 l 149 764 l 149 972 m 781 1044 l 588 1044 l 588 1215 l 781 1215 "},"ż":{"ha":1369,"x_min":0,"x_max":0,"o":"m 1297 972 l 561 210 l 935 210 b 1100 376 1032 210 1086 274 l 1326 376 b 885 0 1314 126 1167 0 l 38 0 l 793 764 l 149 764 l 149 972 m 781 1044 l 588 1044 l 588 1215 l 781 1215 "},"Ž":{"ha":1369,"x_min":0,"x_max":0,"o":"m 1297 972 l 561 210 l 935 210 b 1100 376 1032 210 1086 274 l 1326 376 b 885 0 1314 126 1167 0 l 38 0 l 793 764 l 149 764 l 149 972 m 421 1279 l 949 1279 l 949 1221 l 685 1054 l 421 1221 "},"ž":{"ha":1369,"x_min":0,"x_max":0,"o":"m 1297 972 l 561 210 l 935 210 b 1100 376 1032 210 1086 274 l 1326 376 b 885 0 1314 126 1167 0 l 38 0 l 793 764 l 149 764 l 149 972 m 421 1279 l 949 1279 l 949 1221 l 685 1054 l 421 1221 "},"ƒ":{"ha":657,"x_min":0,"x_max":0,"o":"m 632 413 l 450 413 l 450 -60 b 196 -300 450 -243 318 -300 l 43 -300 l 43 -106 l 143 -106 b 222 -7 196 -106 222 -72 l 222 413 l 72 413 l 72 567 l 222 567 l 222 733 b 476 972 222 915 354 972 l 631 972 l 631 779 l 529 779 b 450 681 476 779 450 744 l 450 567 l 632 567 "},"Ș":{"ha":1356,"x_min":0,"x_max":0,"o":"m 1269 743 l 474 743 b 307 594 375 743 319 694 l 1274 594 l 1274 410 b 832 0 1274 138 1126 0 l 82 0 l 82 231 l 882 231 b 1047 376 978 231 1032 282 l 82 376 l 82 563 b 525 972 82 835 229 972 l 1269 972 m 364 -87 l 892 -87 l 892 -146 l 628 -314 l 364 -146 "},"ș":{"ha":1356,"x_min":0,"x_max":0,"o":"m 1269 743 l 474 743 b 307 594 375 743 319 694 l 1274 594 l 1274 410 b 832 0 1274 138 1126 0 l 82 0 l 82 231 l 882 231 b 1047 376 978 231 1032 282 l 82 376 l 82 563 b 525 972 82 835 229 972 l 1269 972 m 364 -87 l 892 -87 l 892 -146 l 628 -314 l 364 -146 "},"Ț":{"ha":1314,"x_min":0,"x_max":0,"o":"m 1274 743 l 826 743 l 826 0 l 590 0 l 590 743 l 426 743 b 260 594 324 743 268 694 l 36 594 b 464 972 57 847 199 972 l 1274 972 m 446 -87 l 974 -87 l 974 -146 l 710 -314 l 446 -146 "},"ț":{"ha":1314,"x_min":0,"x_max":0,"o":"m 1274 743 l 826 743 l 826 0 l 590 0 l 590 743 l 426 743 b 260 594 324 743 268 694 l 36 594 b 464 972 57 847 199 972 l 1274 972 m 446 -87 l 974 -87 l 974 -146 l 710 -314 l 446 -146 "},"ˆ":{"ha":696,"x_min":0,"x_max":0,"o":"m 81 1113 l 344 1279 l 608 1113 l 608 1054 l 81 1054 "},"ˇ":{"ha":696,"x_min":0,"x_max":0,"o":"m 81 1279 l 608 1279 l 608 1221 l 344 1054 l 81 1221 "},"˘":{"ha":597,"x_min":0,"x_max":0,"o":"m 401 1279 l 511 1279 l 511 1222 b 347 1033 511 1103 453 1033 l 81 1033 l 81 1279 l 190 1279 l 190 1147 l 336 1147 b 401 1226 388 1147 401 1167 "},"˙":{"ha":361,"x_min":0,"x_max":0,"o":"m 274 1044 l 81 1044 l 81 1215 l 274 1215 "},"˚":{"ha":492,"x_min":0,"x_max":0,"o":"m 322 1207 l 213 1207 b 164 1156 174 1207 164 1196 l 164 1107 l 274 1107 b 322 1157 313 1107 322 1118 m 406 1279 l 406 1154 b 282 1033 406 1078 361 1033 l 81 1033 l 81 1157 b 201 1279 81 1232 125 1279 "},"˛":{"ha":663,"x_min":0,"x_max":0,"o":"m 81 -385 b 314 0 81 -193 175 -60 l 551 0 b 382 -154 461 -32 389 -100 l 576 -154 l 576 -385 "},"˜":{"ha":864,"x_min":0,"x_max":0,"o":"m 81 1193 l 778 1193 l 778 1054 l 81 1054 "},"˝":{"ha":950,"x_min":0,"x_max":0,"o":"m 863 1054 l 407 1054 l 407 1113 l 863 1279 m 536 1211 l 353 1143 l 353 1054 l 81 1054 l 81 1113 l 536 1279 "},"Δ":{"ha":1406,"x_min":0,"x_max":0,"o":"m 703 1057 l 1378 0 l 28 0 m 444 231 l 961 231 l 758 571 b 704 679 738 607 718 643 b 647 572 689 643 669 607 "},"Ω":{"ha":1543,"x_min":0,"x_max":0,"o":"m 415 743 l 415 626 l 635 278 l 635 0 l 483 0 b 42 376 200 0 53 126 l 268 376 b 433 224 282 274 336 224 l 453 224 l 179 568 l 179 972 l 1364 972 l 1364 568 l 1089 224 l 1110 224 b 1274 376 1207 224 1260 274 l 1500 376 b 1060 0 1489 126 1342 0 l 908 0 l 908 278 l 1126 626 l 1126 743 "},"μ":{"ha":1243,"x_min":0,"x_max":0,"o":"m 326 219 l 682 219 b 936 476 851 219 936 304 l 936 596 l 1174 596 l 1174 483 b 689 0 1174 124 925 0 l 326 0 l 326 -251 l 90 -251 l 90 596 l 326 596 "},"π":{"ha":1024,"x_min":0,"x_max":0,"o":"m 935 0 l 699 0 l 699 375 l 322 375 l 322 0 l 86 0 l 86 594 l 938 594 "},"Ẁ":{"ha":1710,"x_min":0,"x_max":0,"o":"m 993 349 l 756 349 l 756 972 l 993 972 m 1626 0 l 576 0 b 90 446 288 0 90 182 l 90 972 l 326 972 l 326 485 b 576 231 326 314 408 231 l 1392 231 l 1392 972 l 1626 972 m 583 1279 l 1039 1113 l 1039 1054 l 583 1054 "},"ẁ":{"ha":1710,"x_min":0,"x_max":0,"o":"m 993 349 l 756 349 l 756 972 l 993 972 m 1626 0 l 576 0 b 90 446 288 0 90 182 l 90 972 l 326 972 l 326 485 b 576 231 326 314 408 231 l 1392 231 l 1392 972 l 1626 972 m 583 1279 l 1039 1113 l 1039 1054 l 583 1054 "},"Ẃ":{"ha":1710,"x_min":0,"x_max":0,"o":"m 993 349 l 756 349 l 756 972 l 993 972 m 1626 0 l 576 0 b 90 446 288 0 90 182 l 90 972 l 326 972 l 326 485 b 576 231 326 314 408 231 l 1392 231 l 1392 972 l 1626 972 m 1167 1054 l 711 1054 l 711 1113 l 1167 1279 "},"ẃ":{"ha":1710,"x_min":0,"x_max":0,"o":"m 993 349 l 756 349 l 756 972 l 993 972 m 1626 0 l 576 0 b 90 446 288 0 90 182 l 90 972 l 326 972 l 326 485 b 576 231 326 314 408 231 l 1392 231 l 1392 972 l 1626 972 m 1167 1054 l 711 1054 l 711 1113 l 1167 1279 "},"Ẅ":{"ha":1710,"x_min":0,"x_max":0,"o":"m 993 349 l 756 349 l 756 972 l 993 972 m 1626 0 l 576 0 b 90 446 288 0 90 182 l 90 972 l 326 972 l 326 485 b 576 231 326 314 408 231 l 1392 231 l 1392 972 l 1626 972 m 1149 1044 l 956 1044 l 956 1215 l 1149 1215 m 796 1044 l 603 1044 l 603 1215 l 796 1215 "},"ẅ":{"ha":1710,"x_min":0,"x_max":0,"o":"m 993 349 l 756 349 l 756 972 l 993 972 m 1626 0 l 576 0 b 90 446 288 0 90 182 l 90 972 l 326 972 l 326 485 b 576 231 326 314 408 231 l 1392 231 l 1392 972 l 1626 972 m 1149 1044 l 956 1044 l 956 1215 l 1149 1215 m 796 1044 l 603 1044 l 603 1215 l 796 1215 "},"Ỳ":{"ha":1450,"x_min":0,"x_max":0,"o":"m 1368 972 l 1368 483 b 883 0 1368 181 1193 0 l 90 0 l 90 231 l 878 231 b 1118 375 1022 231 1092 281 l 90 375 l 90 972 l 326 972 l 326 588 l 1132 588 l 1132 972 m 433 1279 l 889 1113 l 889 1054 l 433 1054 "},"ỳ":{"ha":1450,"x_min":0,"x_max":0,"o":"m 1368 972 l 1368 483 b 883 0 1368 181 1193 0 l 90 0 l 90 231 l 878 231 b 1118 375 1022 231 1092 281 l 90 375 l 90 972 l 326 972 l 326 588 l 1132 588 l 1132 972 m 433 1279 l 889 1113 l 889 1054 l 433 1054 "},"–":{"ha":969,"x_min":0,"x_max":0,"o":"m 900 413 l 90 413 l 90 567 l 900 567 "},"—":{"ha":1561,"x_min":0,"x_max":0,"o":"m 1464 413 l 90 413 l 90 567 l 1464 567 "},"‘":{"ha":313,"x_min":0,"x_max":0,"o":"m 146 972 l 261 972 l 261 671 l 64 671 "},"’":{"ha":313,"x_min":0,"x_max":0,"o":"m 181 671 l 65 671 l 65 972 l 263 972 "},"‚":{"ha":313,"x_min":0,"x_max":0,"o":"m 181 -131 l 65 -131 l 65 171 l 263 171 "},"“":{"ha":553,"x_min":0,"x_max":0,"o":"m 147 972 l 263 972 l 263 671 l 65 671 m 385 972 l 501 972 l 501 671 l 304 671 "},"”":{"ha":553,"x_min":0,"x_max":0,"o":"m 419 671 l 304 671 l 304 972 l 501 972 m 181 671 l 65 671 l 65 972 l 263 972 "},"„":{"ha":553,"x_min":0,"x_max":0,"o":"m 419 -131 l 304 -131 l 304 171 l 501 171 m 181 -131 l 65 -131 l 65 171 l 263 171 "},"†":{"ha":619,"x_min":0,"x_max":0,"o":"m 596 611 l 390 611 l 390 0 l 231 0 l 231 611 l 24 611 l 24 767 l 231 767 l 231 972 l 390 972 l 390 767 l 596 767 "},"‡":{"ha":619,"x_min":0,"x_max":0,"o":"m 596 207 l 390 207 l 390 0 l 231 0 l 231 207 l 24 207 l 24 361 l 231 361 l 231 611 l 24 611 l 24 767 l 231 767 l 231 972 l 390 972 l 390 767 l 596 767 l 596 611 l 390 611 l 390 361 l 596 361 "},"•":{"ha":611,"x_min":0,"x_max":0,"o":"m 418 296 l 193 296 l 93 489 l 193 685 l 418 685 l 518 489 "},"…":{"ha":1933,"x_min":0,"x_max":0,"o":"m 1758 0 l 1565 0 l 1565 231 l 1758 231 m 1068 0 l 875 0 l 875 231 l 1068 231 m 361 0 l 168 0 l 168 231 l 361 231 "},"‰":{"ha":2394,"x_min":0,"x_max":0,"o":"m 1343 907 l 436 -15 l 333 89 l 1242 1011 m 1575 538 l 1575 267 b 1306 0 1575 100 1476 0 l 888 0 l 888 269 b 1156 538 888 433 986 538 m 1303 201 l 1168 201 l 1168 335 l 1303 335 m 2308 538 l 2308 267 b 2039 0 2308 100 2210 0 l 1621 0 l 1621 269 b 1889 538 1621 433 1719 538 m 2036 201 l 1901 201 l 1901 335 l 2036 335 m 768 972 l 768 701 b 499 435 768 535 669 435 l 81 435 l 81 704 b 349 972 81 868 179 972 m 496 636 l 361 636 l 361 769 l 496 769 m 1433 399 l 1158 399 b 1029 267 1060 399 1029 368 l 1029 139 l 1303 139 b 1433 269 1400 139 1433 167 m 2167 399 l 1892 399 b 1763 267 1793 399 1763 368 l 1763 139 l 2036 139 b 2167 269 2133 139 2167 167 m 626 833 l 351 833 b 222 701 253 833 222 803 l 222 574 l 496 574 b 626 704 593 574 626 601 "},"‹":{"ha":671,"x_min":0,"x_max":0,"o":"m 540 164 l 365 164 l 79 482 l 365 806 l 540 806 l 242 486 "},"›":{"ha":671,"x_min":0,"x_max":0,"o":"m 378 486 l 76 806 l 254 806 l 540 482 l 254 164 l 76 164 "},"⁄":{"ha":499,"x_min":0,"x_max":0,"o":"m 754 907 l -153 -15 l -256 89 l 653 1011 "},"⁰":{"ha":815,"x_min":0,"x_max":0,"o":"m 475 636 l 340 636 l 340 769 l 475 769 m 606 833 l 331 833 b 201 701 232 833 201 803 l 201 574 l 475 574 b 606 704 572 574 606 601 m 747 972 l 747 701 b 478 435 747 535 649 435 l 60 435 l 60 704 b 328 972 60 868 158 972 "},"⁴":{"ha":785,"x_min":0,"x_max":0,"o":"m 197 972 l 197 769 l 576 769 l 576 972 l 711 972 l 711 435 l 576 435 l 576 636 l 56 636 l 56 972 "},"⁵":{"ha":760,"x_min":0,"x_max":0,"o":"m 690 833 l 199 833 l 199 769 l 693 769 l 693 663 b 447 435 693 511 610 435 l 65 435 l 65 574 l 474 574 b 553 636 518 574 543 596 l 65 636 l 65 972 l 690 972 "},"⁶":{"ha":756,"x_min":0,"x_max":0,"o":"m 471 574 b 550 636 514 574 540 597 l 194 636 l 194 574 m 686 833 l 278 833 b 197 769 232 833 207 814 l 689 769 l 689 663 b 443 435 689 511 607 435 l 60 435 l 60 744 b 306 972 60 894 142 972 l 686 972 "},"⁷":{"ha":792,"x_min":0,"x_max":0,"o":"m 131 435 l 454 808 b 483 835 460 815 460 815 b 433 833 464 833 450 833 l 269 833 b 188 754 221 833 193 808 l 50 754 b 296 972 57 899 140 972 l 767 972 l 311 435 "},"⁸":{"ha":819,"x_min":0,"x_max":0,"o":"m 207 435 b 56 575 106 435 56 482 b 126 708 56 646 81 689 b 56 831 82 726 56 768 b 207 972 56 925 106 972 l 604 972 b 753 831 704 972 753 925 b 682 708 753 767 728 725 b 753 575 728 689 753 646 b 604 435 753 482 704 435 m 240 640 b 206 603 217 640 206 628 b 240 569 206 581 217 569 l 569 569 b 606 603 593 569 606 581 b 569 640 606 628 593 640 m 240 835 b 206 803 217 835 206 825 b 240 765 206 776 217 765 l 569 765 b 606 803 593 765 606 776 b 569 835 606 825 593 835 "},"⁹":{"ha":779,"x_min":0,"x_max":0,"o":"m 574 769 l 574 833 l 278 833 b 197 769 233 833 207 814 m 63 574 l 492 574 b 571 636 539 574 564 594 l 60 636 l 60 744 b 304 972 60 894 140 972 l 708 972 l 708 663 b 464 435 708 511 628 435 l 63 435 "},"₀":{"ha":815,"x_min":0,"x_max":0,"o":"m 475 201 l 340 201 l 340 335 l 475 335 m 606 399 l 331 399 b 201 267 232 399 201 368 l 201 139 l 475 139 b 606 269 572 139 606 167 m 747 538 l 747 267 b 478 0 747 100 649 0 l 60 0 l 60 269 b 328 538 60 433 158 538 "},"₁":{"ha":364,"x_min":0,"x_max":0,"o":"m 165 0 l 165 288 b 67 399 165 363 131 399 l 25 399 l 25 538 l 69 538 b 307 289 229 538 307 460 l 307 0 "},"₂":{"ha":772,"x_min":0,"x_max":0,"o":"m 710 0 l 50 0 l 50 335 l 575 335 b 494 399 564 376 538 399 l 50 399 l 50 538 l 468 538 b 713 310 632 538 713 460 l 713 201 l 186 201 l 186 139 l 710 139 "},"₃":{"ha":790,"x_min":0,"x_max":0,"o":"m 722 538 l 722 267 b 453 0 722 100 625 0 l 63 0 l 63 139 l 450 139 b 569 201 519 139 553 157 l 278 201 l 278 335 l 581 335 l 581 399 l 278 399 b 194 319 231 399 203 374 l 60 319 b 304 538 67 464 149 538 "},"₄":{"ha":785,"x_min":0,"x_max":0,"o":"m 197 538 l 197 335 l 576 335 l 576 538 l 711 538 l 711 0 l 576 0 l 576 201 l 56 201 l 56 538 "},"₅":{"ha":760,"x_min":0,"x_max":0,"o":"m 690 399 l 199 399 l 199 335 l 693 335 l 693 228 b 447 0 693 76 610 0 l 65 0 l 65 139 l 474 139 b 553 201 518 139 543 161 l 65 201 l 65 538 l 690 538 "},"₆":{"ha":756,"x_min":0,"x_max":0,"o":"m 471 139 b 550 201 514 139 540 163 l 194 201 l 194 139 m 686 399 l 278 399 b 197 335 232 399 207 379 l 689 335 l 689 228 b 443 0 689 76 607 0 l 60 0 l 60 310 b 306 538 60 460 142 538 l 686 538 "},"₇":{"ha":792,"x_min":0,"x_max":0,"o":"m 131 0 l 454 374 b 483 400 460 381 460 381 b 433 399 464 399 450 399 l 269 399 b 188 319 221 399 193 374 l 50 319 b 296 538 57 464 140 538 l 767 538 l 311 0 "},"₈":{"ha":819,"x_min":0,"x_max":0,"o":"m 207 0 b 56 140 106 0 56 47 b 126 274 56 211 81 254 b 56 396 82 292 56 333 b 207 538 56 490 106 538 l 604 538 b 753 396 704 538 753 490 b 682 274 753 332 728 290 b 753 140 728 254 753 211 b 604 0 753 47 704 0 m 240 206 b 206 168 217 206 206 193 b 240 135 206 146 217 135 l 569 135 b 606 168 593 135 606 146 b 569 206 606 193 593 206 m 240 400 b 206 368 217 400 206 390 b 240 331 206 342 217 331 l 569 331 b 606 368 593 331 606 342 b 569 400 606 390 593 400 "},"₉":{"ha":779,"x_min":0,"x_max":0,"o":"m 574 335 l 574 399 l 278 399 b 197 335 233 399 207 379 m 63 139 l 492 139 b 571 201 539 139 564 160 l 60 201 l 60 310 b 304 538 60 460 140 538 l 708 538 l 708 228 b 464 0 708 76 628 0 l 63 0 "},"€":{"ha":1375,"x_min":0,"x_max":0,"o":"m 50 471 l 121 471 l 121 533 l 24 533 l 50 628 l 121 628 l 121 972 l 1322 972 l 1189 743 l 358 743 l 358 628 l 1121 628 l 1064 533 l 358 533 l 358 471 l 1029 471 l 974 376 l 374 376 b 613 231 406 279 485 231 l 1300 231 l 1300 0 l 607 0 b 128 376 336 0 168 136 l 24 376 "},"₹":{"ha":1083,"x_min":0,"x_max":0,"o":"m 65 972 l 1033 972 l 1033 793 l 879 793 l 879 711 l 1033 711 l 1033 532 l 871 532 b 554 257 853 403 776 279 l 815 0 l 528 0 l 250 265 l 250 447 l 519 447 b 640 532 597 447 632 476 l 65 532 l 65 711 l 650 711 l 650 793 l 65 793 "},"℗":{"ha":1210,"x_min":0,"x_max":0,"o":"m 1125 972 l 1125 483 b 639 0 1125 181 949 0 l 86 0 l 86 488 b 571 972 86 785 265 972 m 571 847 b 211 488 344 847 211 708 l 211 126 l 639 126 b 999 483 868 126 999 260 l 999 847 m 343 276 l 343 726 l 940 726 l 940 640 b 736 450 940 514 872 450 l 503 450 l 503 553 l 758 553 b 835 619 803 553 828 576 l 453 619 l 453 276 "},"™":{"ha":1656,"x_min":0,"x_max":0,"o":"m 703 821 l 508 821 l 508 396 l 353 396 l 353 821 l 294 821 b 183 724 226 821 190 789 l 36 724 b 319 972 50 889 143 972 l 703 972 m 1097 742 l 1254 742 l 1254 396 l 1097 396 m 786 972 l 1272 972 b 1593 678 1463 972 1593 851 l 1593 396 l 1436 396 l 1436 651 b 1272 821 1436 765 1382 821 l 940 821 l 940 396 l 786 396 "},"⅓":{"ha":1403,"x_min":0,"x_max":0,"o":"m 1315 538 l 1315 267 b 1046 0 1315 100 1218 0 l 656 0 l 656 139 l 1043 139 b 1163 201 1113 139 1146 157 l 871 201 l 871 335 l 1174 335 l 1174 399 l 871 399 b 788 319 824 399 796 374 l 653 319 b 897 538 660 464 742 538 m 251 435 l 251 722 b 153 833 251 797 217 833 l 111 833 l 111 972 l 156 972 b 393 724 315 972 393 894 l 393 435 m 1090 907 l 183 -15 l 81 89 l 989 1011 "},"⅔":{"ha":1744,"x_min":0,"x_max":0,"o":"m 740 435 l 81 435 l 81 769 l 606 769 b 525 833 594 811 568 833 l 81 833 l 81 972 l 499 972 b 743 744 663 972 743 894 l 743 636 l 217 636 l 217 574 l 740 574 m 1435 907 l 528 -15 l 425 89 l 1333 1011 m 1658 538 l 1658 267 b 1389 0 1658 100 1561 0 l 999 0 l 999 139 l 1386 139 b 1506 201 1456 139 1489 157 l 1214 201 l 1214 335 l 1517 335 l 1517 399 l 1214 399 b 1131 319 1167 399 1139 374 l 996 319 b 1240 538 1003 464 1085 538 "},"⅛":{"ha":1485,"x_min":0,"x_max":0,"o":"m 251 435 l 251 722 b 153 833 251 797 217 833 l 111 833 l 111 972 l 156 972 b 393 724 315 972 393 894 l 393 435 m 1090 907 l 183 -15 l 81 89 l 989 1011 m 851 0 b 700 140 750 0 700 47 b 771 274 700 211 725 254 b 700 396 726 292 700 333 b 851 538 700 490 750 538 l 1249 538 b 1397 396 1349 538 1397 490 b 1326 274 1397 332 1372 290 b 1397 140 1372 254 1397 211 b 1249 0 1397 47 1349 0 m 885 206 b 850 168 861 206 850 193 b 885 135 850 146 861 135 l 1214 135 b 1250 168 1238 135 1250 146 b 1214 206 1250 193 1238 206 m 885 400 b 850 368 861 400 850 390 b 885 331 850 342 861 331 l 1214 331 b 1250 368 1238 331 1250 342 b 1214 400 1250 390 1238 400 "},"⅜":{"ha":1729,"x_min":0,"x_max":0,"o":"m 1324 907 l 417 -15 l 314 89 l 1222 1011 m 1096 0 b 944 140 994 0 944 47 b 1015 274 944 211 969 254 b 944 396 971 292 944 333 b 1096 538 944 490 994 538 l 1493 538 b 1642 396 1593 538 1642 490 b 1571 274 1642 332 1617 290 b 1642 140 1617 254 1642 211 b 1493 0 1642 47 1593 0 m 742 972 l 742 701 b 472 435 742 535 644 435 l 82 435 l 82 574 l 469 574 b 589 636 539 574 572 592 l 297 636 l 297 769 l 600 769 l 600 833 l 297 833 b 214 754 250 833 222 808 l 79 754 b 324 972 86 899 168 972 m 1129 206 b 1094 168 1106 206 1094 193 b 1129 135 1094 146 1106 135 l 1458 135 b 1494 168 1482 135 1494 146 b 1458 206 1494 193 1482 206 m 1129 400 b 1094 368 1106 400 1094 390 b 1129 331 1094 342 1106 331 l 1458 331 b 1494 368 1482 331 1494 342 b 1458 400 1494 390 1482 400 "},"⅝":{"ha":1722,"x_min":0,"x_max":0,"o":"m 1314 907 l 407 -15 l 304 89 l 1213 1011 m 1089 0 b 938 140 988 0 938 47 b 1008 274 938 211 963 254 b 938 396 964 292 938 333 b 1089 538 938 490 988 538 l 1486 538 b 1635 396 1586 538 1635 490 b 1564 274 1635 332 1610 290 b 1635 140 1610 254 1635 211 b 1486 0 1635 47 1586 0 m 706 833 l 214 833 l 214 769 l 708 769 l 708 663 b 463 435 708 511 625 435 l 81 435 l 81 574 l 489 574 b 568 636 533 574 558 596 l 81 636 l 81 972 l 706 972 m 1122 206 b 1088 168 1099 206 1088 193 b 1122 135 1088 146 1099 135 l 1451 135 b 1488 168 1475 135 1488 146 b 1451 206 1488 193 1475 206 m 1122 400 b 1088 368 1099 400 1088 390 b 1122 331 1088 342 1099 331 l 1451 331 b 1488 368 1475 331 1488 342 b 1451 400 1488 390 1475 400 "},"⅞":{"ha":1601,"x_min":0,"x_max":0,"o":"m 161 435 l 485 808 b 514 835 490 815 490 815 b 464 833 494 833 481 833 l 300 833 b 218 754 251 833 224 808 l 81 754 b 326 972 88 899 171 972 l 797 972 l 342 435 m 1210 907 l 303 -15 l 200 89 l 1108 1011 m 968 0 b 817 140 867 0 817 47 b 888 274 817 211 842 254 b 817 396 843 292 817 333 b 968 538 817 490 867 538 l 1365 538 b 1514 396 1465 538 1514 490 b 1443 274 1514 332 1489 290 b 1514 140 1489 254 1514 211 b 1365 0 1514 47 1465 0 m 1001 206 b 967 168 978 206 967 193 b 1001 135 967 146 978 135 l 1331 135 b 1367 168 1354 135 1367 146 b 1331 206 1367 193 1354 206 m 1001 400 b 967 368 978 400 967 390 b 1001 331 967 342 978 331 l 1331 331 b 1367 368 1354 331 1367 342 b 1331 400 1367 390 1354 400 "},"←":{"ha":989,"x_min":0,"x_max":0,"o":"m 667 619 l 886 619 l 886 361 l 667 361 l 667 165 l 92 482 l 667 807 "},"↑":{"ha":863,"x_min":0,"x_max":0,"o":"m 578 388 l 578 167 l 319 167 l 319 388 l 124 388 l 440 963 l 767 388 "},"→":{"ha":989,"x_min":0,"x_max":0,"o":"m 311 807 l 886 482 l 311 165 l 311 361 l 90 361 l 90 619 l 311 619 "},"↓":{"ha":863,"x_min":0,"x_max":0,"o":"m 313 576 l 313 796 l 569 796 l 569 576 l 767 576 l 449 1 l 124 576 "},"∂":{"ha":808,"x_min":0,"x_max":0,"o":"m 314 961 b 407 972 349 969 381 972 b 758 583 588 972 758 858 b 368 0 758 278 667 0 b 49 342 157 0 49 115 b 322 647 49 558 171 647 b 594 532 458 647 538 603 b 383 790 594 710 518 790 b 314 782 371 790 347 788 m 543 351 b 378 464 526 421 474 464 b 239 326 294 464 239 410 b 368 182 239 225 294 182 b 543 351 461 182 518 238 "},"∏":{"ha":1140,"x_min":0,"x_max":0,"o":"m 1040 -260 l 867 -260 l 867 999 l 274 999 l 274 -260 l 100 -260 l 100 1153 l 1040 1153 "},"∑":{"ha":665,"x_min":0,"x_max":0,"o":"m 31 -119 l 31 21 l 279 424 l 31 831 l 31 972 l 633 972 l 633 769 l 292 769 l 496 424 l 292 83 l 633 83 l 633 -119 "},"−":{"ha":619,"x_min":0,"x_max":0,"o":"m 596 413 l 24 413 l 24 567 l 596 567 "},"√":{"ha":1007,"x_min":0,"x_max":0,"o":"m 971 972 l 532 0 l 340 0 l 149 413 l 33 413 l 33 567 l 250 567 l 443 142 l 797 972 "},"∞":{"ha":1117,"x_min":0,"x_max":0,"o":"m 817 554 b 744 633 817 607 793 633 b 660 554 688 633 660 607 l 660 419 b 744 340 660 367 688 340 b 817 419 793 340 817 367 m 454 554 b 371 633 454 607 426 633 b 297 554 322 633 297 607 l 297 419 b 371 340 297 367 322 340 b 454 419 426 340 454 367 m 72 554 b 318 821 72 732 153 821 b 567 653 464 821 546 760 b 797 821 588 763 663 821 b 1044 554 963 821 1044 732 l 1044 419 b 797 153 1044 242 963 153 b 567 321 663 153 588 214 b 318 153 546 215 464 153 b 72 419 153 153 72 242 "},"∫":{"ha":642,"x_min":0,"x_max":0,"o":"m 433 -121 b 176 -385 433 -328 297 -385 l 26 -385 l 26 -189 l 136 -189 b 207 -36 182 -189 207 -139 l 207 1040 b 460 1279 207 1222 339 1279 l 614 1279 l 614 1086 l 514 1086 b 433 876 460 1086 433 1015 "},"≈":{"ha":619,"x_min":0,"x_max":0,"o":"m 469 201 b 440 194 458 197 449 194 b 418 197 433 194 428 196 l 207 254 b 194 256 204 256 199 256 b 181 253 192 256 188 256 l 24 206 l 24 364 l 151 401 b 181 407 164 404 174 407 b 204 403 188 407 193 404 l 414 349 b 428 347 418 347 422 347 b 440 350 431 347 433 347 l 596 393 l 596 238 m 469 579 b 440 572 458 575 449 572 b 418 575 433 572 428 574 l 207 632 b 194 633 204 633 199 633 b 181 631 192 633 188 633 l 24 583 l 24 742 l 151 779 b 181 785 164 782 174 785 b 204 781 188 785 193 782 l 414 726 b 428 725 418 725 422 725 b 440 728 431 725 433 725 l 596 771 l 596 615 "},"≠":{"ha":619,"x_min":0,"x_max":0,"o":"m 575 922 l 486 731 l 596 731 l 596 576 l 414 576 l 335 404 l 596 404 l 596 249 l 263 249 l 147 0 l 44 51 l 136 249 l 24 249 l 24 404 l 207 404 l 288 576 l 24 576 l 24 731 l 360 731 l 474 972 "},"≤":{"ha":619,"x_min":0,"x_max":0,"o":"m 596 124 l 24 400 l 24 593 l 596 857 l 596 683 l 167 489 l 596 297 m 596 -51 l 24 -51 l 24 103 l 596 103 "},"≥":{"ha":619,"x_min":0,"x_max":0,"o":"m 24 297 l 454 489 l 24 683 l 24 857 l 596 593 l 596 400 l 24 124 m 596 -51 l 24 -51 l 24 103 l 596 103 "},"◊":{"ha":885,"x_min":0,"x_max":0,"o":"m 46 486 l 318 907 b 443 972 343 949 375 972 b 567 907 506 972 540 949 l 839 486 l 567 65 b 443 0 540 26 506 0 b 318 65 375 0 343 26 m 629 486 l 443 786 l 256 486 l 443 186 "},"":{"ha":1439,"x_min":0,"x_max":0,"o":"m 318 590 l 1094 590 b 1026 697 1088 629 1065 665 b 746 743 988 728 894 743 l 318 743 m 82 972 l 861 972 b 1347 488 1169 972 1347 792 l 1347 0 l 1110 0 l 1110 371 l 318 371 l 318 0 l 82 0 "},"":{"ha":1364,"x_min":0,"x_max":0,"o":"m 1294 743 l 317 743 l 317 486 b 571 231 317 315 401 231 l 1294 231 l 1294 0 l 567 0 b 81 483 257 0 81 181 l 81 972 l 1294 972 "},"":{"ha":1399,"x_min":0,"x_max":0,"o":"m 1081 483 b 826 743 1081 657 996 743 l 90 743 l 90 972 l 832 972 b 1317 488 1140 972 1317 792 l 1317 0 l 90 0 l 90 594 l 326 594 l 326 231 l 1081 231 "},"":{"ha":1365,"x_min":0,"x_max":0,"o":"m 1314 0 l 81 0 l 81 488 b 567 972 81 786 265 972 l 1314 972 l 1314 743 l 571 743 b 329 594 426 743 358 690 l 1289 594 l 1289 376 l 317 376 l 317 231 l 1314 231 "},"":{"ha":1436,"x_min":0,"x_max":0,"o":"m 1353 972 l 1353 743 l 571 743 b 317 479 374 743 317 685 l 317 231 l 861 231 b 1094 376 1008 231 1068 274 l 946 376 l 946 594 l 1358 594 b 865 0 1332 124 1190 0 l 82 0 l 82 488 b 567 972 82 792 257 972 "},"":{"ha":1272,"x_min":0,"x_max":0,"o":"m 326 972 l 326 231 l 1217 231 l 1217 0 l 90 0 l 90 972 "},"":{"ha":1458,"x_min":0,"x_max":0,"o":"m 317 488 b 571 231 317 286 381 231 l 1135 231 l 1135 483 b 881 743 1135 683 1075 743 l 317 743 m 886 972 b 1371 488 1192 972 1371 785 l 1371 0 l 567 0 b 81 483 257 0 81 181 l 81 972 "},"":{"ha":1143,"x_min":0,"x_max":0,"o":"m 1114 743 l 690 743 l 690 0 l 456 0 l 456 743 l 29 743 l 29 972 l 1114 972 "},"":{"ha":1396,"x_min":0,"x_max":0,"o":"m 1317 972 l 1317 514 b 779 0 1317 181 1107 0 l 90 0 l 90 972 l 326 972 l 326 231 l 717 231 b 1081 499 960 231 1081 319 l 1081 972 "},"":{"ha":1710,"x_min":0,"x_max":0,"o":"m 725 972 l 961 972 l 961 349 l 725 349 m 90 972 l 326 972 l 326 231 l 1140 231 b 1392 485 1308 231 1392 314 l 1392 972 l 1626 972 l 1626 446 b 1140 0 1626 182 1429 0 l 90 0 "},"":{"ha":1394,"x_min":0,"x_max":0,"o":"m 1311 972 l 579 224 l 1292 224 l 1292 0 l 53 0 l 794 750 l 164 750 l 164 972 "},"":{"ha":1415,"x_min":0,"x_max":0,"o":"m 76 0 l 76 225 l 1003 225 b 1082 300 1056 225 1082 250 b 1003 382 1082 354 1056 382 l 442 382 l 442 589 l 1003 589 b 1082 674 1056 589 1082 617 b 1003 744 1082 721 1056 744 l 76 744 l 76 972 l 1065 972 b 1332 726 1243 972 1332 890 b 1151 496 1332 593 1271 515 b 1332 247 1265 474 1332 393 b 1065 0 1332 82 1243 0 "},"":{"ha":1418,"x_min":0,"x_max":0,"o":"m 81 0 l 81 225 l 1006 225 b 1085 300 1058 225 1085 250 b 1006 382 1085 354 1058 382 l 82 382 l 82 589 l 1006 589 b 1085 674 1058 589 1085 617 b 1006 744 1085 721 1058 744 l 81 744 l 81 972 l 1069 972 b 1335 726 1247 972 1335 890 b 1153 496 1335 593 1274 515 b 1335 247 1268 474 1335 393 b 1069 0 1335 82 1247 0 "},"":{"ha":1326,"x_min":0,"x_max":0,"o":"m 67 972 l 1282 972 l 1282 483 b 794 0 1282 181 1104 0 l 67 0 l 67 231 l 790 231 b 1044 486 960 231 1044 315 l 1044 743 l 67 743 "},"":{"ha":1444,"x_min":0,"x_max":0,"o":"m 354 0 b 89 247 178 0 89 82 b 269 496 89 393 157 474 b 89 726 150 515 89 593 b 354 972 89 890 178 972 l 1343 972 l 1343 744 l 418 744 b 340 674 367 744 340 721 b 418 589 340 617 367 589 l 1342 589 l 1342 382 l 418 382 b 340 300 367 382 340 354 b 418 225 340 250 367 225 l 1343 225 l 1343 0 "},"":{"ha":1458,"x_min":0,"x_max":0,"o":"m 1371 743 l 571 743 b 317 483 376 743 317 683 l 317 231 l 881 231 b 1135 488 1071 231 1135 286 l 1135 594 l 1371 594 l 1371 483 b 886 0 1371 181 1194 0 l 81 0 l 81 488 b 567 972 81 785 260 972 l 1371 972 "},"":{"ha":1831,"x_min":0,"x_max":0,"o":"m 686 647 l 925 647 l 925 0 l 686 0 m 83 972 l 1028 972 b 1433 726 1219 972 1351 890 l 1793 0 l 1532 0 l 1193 646 b 997 743 1158 711 1094 743 l 318 743 l 318 0 l 83 0 "},"":{"ha":1272,"x_min":0,"x_max":0,"o":"m 83 972 l 481 972 b 886 726 671 972 807 890 l 1247 0 l 986 0 l 647 646 b 451 743 613 711 551 743 l 318 743 l 318 0 l 83 0 "},"":{"ha":1272,"x_min":0,"x_max":0,"o":"m 74 972 l 311 972 l 311 231 l 444 231 b 639 326 543 231 606 264 l 979 972 l 1240 972 l 878 247 b 474 0 799 82 663 0 l 74 0 "},"":{"ha":1607,"x_min":0,"x_max":0,"o":"m 533 972 l 771 972 l 771 326 l 533 326 m 69 972 l 306 972 l 306 231 l 800 231 b 996 328 900 231 963 263 l 1335 972 l 1596 972 l 1233 247 b 829 0 1153 82 1019 0 l 69 0 "},"":{"ha":1356,"x_min":0,"x_max":0,"o":"m 322 0 l 86 0 l 86 972 l 322 972 l 322 594 l 690 594 l 1021 972 l 1317 972 l 813 376 l 322 376 "},"":{"ha":1458,"x_min":0,"x_max":0,"o":"m 1371 972 l 1371 483 b 886 0 1371 181 1194 0 l 81 0 l 81 488 b 567 972 81 785 260 972 m 881 231 b 1128 392 1036 231 1108 267 l 317 392 l 317 231 m 571 743 b 325 585 414 743 344 703 l 1135 585 l 1135 743 "},"":{"ha":1326,"x_min":0,"x_max":0,"o":"m 81 231 l 1057 231 l 1057 483 b 803 743 1057 657 972 743 l 81 743 l 81 972 l 808 972 b 1294 488 1117 972 1294 792 l 1294 0 l 81 0 "},"":{"ha":1399,"x_min":0,"x_max":0,"o":"m 1099 594 b 932 743 1083 694 1028 743 l 304 743 l 304 594 m 1319 0 l 524 0 b 81 410 228 0 81 138 l 81 972 l 882 972 b 1325 563 1178 972 1325 835 l 1325 376 l 307 376 b 474 231 321 282 374 231 l 1319 231 "},"":{"ha":1831,"x_min":0,"x_max":0,"o":"m 1139 0 l 900 0 l 900 647 l 1139 647 m 1742 0 l 1507 0 l 1507 743 l 828 743 b 632 646 726 743 665 711 l 293 0 l 32 0 l 393 726 b 797 972 474 890 607 972 l 1742 972 "},"":{"ha":1272,"x_min":0,"x_max":0,"o":"m 1192 0 l 954 0 l 954 743 l 822 743 b 626 646 722 743 660 711 l 288 0 l 25 0 l 388 726 b 793 972 468 890 603 972 l 1192 972 "},"":{"ha":1272,"x_min":0,"x_max":0,"o":"m 1192 0 l 793 0 b 388 247 603 0 468 82 l 25 972 l 288 972 l 626 326 b 822 231 661 264 722 231 l 954 231 l 954 972 l 1192 972 "},"":{"ha":1607,"x_min":0,"x_max":0,"o":"m 1068 326 l 831 326 l 831 972 l 1068 972 m 1531 0 l 772 0 b 367 247 582 0 447 82 l 6 972 l 267 972 l 606 328 b 800 231 639 263 700 231 l 1296 231 l 1296 972 l 1531 972 "},"":{"ha":1356,"x_min":0,"x_max":0,"o":"m 1024 376 l 533 376 l 29 972 l 325 972 l 656 594 l 1024 594 l 1024 972 l 1260 972 l 1260 0 l 1024 0 "},"":{"ha":1382,"x_min":0,"x_max":0,"o":"m 1314 743 l 319 743 l 319 594 l 1289 594 l 1289 376 l 319 376 l 319 231 l 1314 231 l 1314 0 l 81 0 l 81 972 l 1314 972 "},"":{"ha":421,"x_min":0,"x_max":0,"o":"m 90 0 l 90 679 l 326 679 l 326 0 m 326 781 l 90 781 l 90 972 l 326 972 "},"":{"ha":1458,"x_min":0,"x_max":0,"o":"m 81 0 l 81 231 l 881 231 b 1135 488 1071 231 1135 286 l 1135 594 l 1371 594 l 1371 483 b 886 0 1371 181 1194 0 m 1371 743 l 571 743 b 317 483 376 743 317 683 l 317 376 l 81 376 l 81 488 b 567 972 81 785 260 972 l 1371 972 "},"":{"ha":1396,"x_min":0,"x_max":0,"o":"m 1081 0 l 1081 474 b 717 743 1081 654 960 743 l 326 743 l 326 0 l 90 0 l 90 972 l 779 972 b 1317 458 1107 972 1317 790 l 1317 0 "},"":{"ha":1396,"x_min":0,"x_max":0,"o":"m 90 0 l 90 458 b 629 972 90 790 300 972 l 1317 972 l 1317 0 l 1081 0 l 1081 743 l 690 743 b 326 474 447 743 326 654 l 326 0 "},"":{"ha":1132,"x_min":0,"x_max":0,"o":"m 293 488 b 546 228 293 314 378 228 l 1074 228 l 1074 0 l 540 0 b 56 483 233 0 56 181 l 56 972 l 293 972 "},"":{"ha":1188,"x_min":0,"x_max":0,"o":"m 665 472 l 561 472 l 561 374 l 665 374 m 1114 972 l 1114 540 b 668 68 1114 225 967 68 l 668 231 l 413 231 l 413 440 b 604 632 413 567 476 632 l 821 632 l 821 279 b 915 482 883 293 915 353 l 915 764 l 468 764 b 282 576 343 764 282 700 l 282 0 l 86 0 l 86 558 b 461 972 86 833 211 972 "}}}
